<svg id="Layer_1" data-name="Layer 1" xmlns="http://www.w3.org/2000/svg" viewBox="0 0 351 370.38"><defs><style>.cls-1,.cls-2,.cls-3,.cls-4{fill:none}.cls-1,.cls-2,.cls-3,.cls-4,.cls-5{stroke:#000}.cls-1,.cls-3,.cls-4{stroke-linecap:round}.cls-1,.cls-3{stroke-linejoin:round}.cls-1,.cls-2,.cls-4{stroke-width:4px}.cls-2,.cls-4,.cls-5{stroke-miterlimit:10}.cls-3{stroke-width:5px}.cls-5,.cls-6{font-size:13.25px;font-family:AvenirNextLTPro-Regular,Avenir Next LT Pro}.cls-5{stroke-width:.5px}</style></defs><title>logo_final_black</title><path class="cls-1" d="M132 140.05l36.22 15.96 9.37-32.02m36.23 15.8l-36.17-15.9"/><path class="cls-3" d="M174.5 331V209.33c0-33.86 28.32-61.31 62.18-61.31s61.87 27.45 61.87 61.31a61.32 61.32 0 0 1-61.32 61.31l60.93 60.19" transform="translate(-64.5 -65)"/><path class="cls-4" d="M240 414A173.5 173.5 0 1 0 66.5 240.5" transform="translate(-64.5 -65)"/><text class="cls-5" transform="rotate(76.1 -133.64 111.223)">S</text><text class="cls-5" transform="rotate(72.12 -150.108 119.04)">T</text><text class="cls-5" transform="rotate(68.13 -168.465 127.982)">R</text><text class="cls-5" transform="rotate(63.81 -190.329 138.318)">A</text><text class="cls-5" transform="matrix(.5 .86 -.86 .5 23.6 259.52)">T</text><text class="cls-6" transform="rotate(53.91 -254.172 171.033)">/</text><text class="cls-6" transform="rotate(50.87 -277.915 182.77)">/</text><text class="cls-6" transform="rotate(44.83 -333.276 208.73)">R</text><text class="cls-6" transform="rotate(40.2 -386.224 232.886)">O</text><text class="cls-6" transform="matrix(.82 .58 -.58 .82 71.24 314.26)">U</text><text class="cls-6" transform="rotate(31.25 -534.5 308.747)">L</text><text class="cls-6" transform="rotate(27.1 -628.612 350.712)">E</text><text class="cls-6" transform="rotate(23.46 -750.854 414.804)">T</text><text class="cls-6" transform="rotate(19.54 -923.917 500.112)">T</text><text class="cls-6" transform="matrix(.96 .27 -.27 .96 125.35 341.67)">E</text></svg>