<?xml version="1.0" standalone="no"?>
<!DOCTYPE svg PUBLIC "-//W3C//DTD SVG 20010904//EN"
 "http://www.w3.org/TR/2001/REC-SVG-20010904/DTD/svg10.dtd">
<svg version="1.0" xmlns="http://www.w3.org/2000/svg"
 width="2000.000000pt" height="2000.000000pt" viewBox="0 0 2000.000000 2000.000000"
 preserveAspectRatio="xMidYMid meet">
<metadata>
Created by potrace 1.16, written by Peter Selinger 2001-2019
</metadata>
<g transform="translate(0.000000,2000.000000) scale(0.100000,-0.100000)"
fill="#000000" stroke="none">
<path d="M9535 17959 c-1968 -125 -3754 -917 -5139 -2279 -919 -904 -1582
-1961 -1987 -3170 -262 -783 -409 -1645 -409 -2401 0 -181 1 -186 23 -207 32
-30 90 -30 121 1 22 22 23 31 29 255 35 1190 310 2285 838 3332 537 1068 1331
2015 2290 2735 951 713 2019 1191 3169 1419 540 107 976 149 1540 149 375 0
635 -16 970 -58 1447 -184 2790 -754 3925 -1666 1327 -1066 2271 -2532 2689
-4176 162 -635 238 -1253 238 -1933 0 -335 -10 -528 -43 -835 -273 -2574
-1814 -4850 -4114 -6079 -1067 -569 -2225 -872 -3488 -912 -194 -6 -221 -9
-243 -26 -33 -27 -34 -95 -1 -126 22 -21 32 -22 198 -22 685 0 1501 129 2229
352 1961 601 3654 1979 4647 3783 561 1018 877 2088 975 3300 20 243 16 947
-6 1205 -90 1063 -358 2026 -822 2952 -650 1300 -1664 2417 -2894 3191 -1092
687 -2288 1086 -3605 1202 -212 19 -918 28 -1130 14z"/>
<path d="M12260 13234 c-403 -37 -770 -163 -1085 -372 -545 -362 -885 -891
-992 -1544 -16 -94 -17 -296 -20 -2320 -3 -1948 -2 -2222 11 -2253 32 -75 144
-82 186 -12 20 31 20 69 20 2219 0 1909 2 2202 15 2305 55 418 241 805 536
1118 516 544 1281 766 2002 581 367 -95 678 -276 947 -553 177 -180 278 -323
380 -535 359 -743 219 -1629 -353 -2235 -361 -382 -833 -597 -1381 -629 -111
-6 -121 -9 -150 -35 -26 -23 -31 -35 -31 -73 l0 -46 1045 -1046 c575 -575
1063 -1059 1084 -1075 45 -33 98 -38 135 -13 31 22 53 77 45 112 -4 19 -307
328 -977 999 -853 854 -968 972 -946 976 13 3 85 16 159 30 181 34 358 94 530
178 243 118 410 237 601 428 183 184 306 354 417 577 159 318 232 632 232 994
0 356 -68 653 -220 965 -118 242 -255 430 -461 630 -340 331 -762 538 -1239
610 -103 15 -402 27 -490 19z"/>
<path d="M7443 13095 c-33 -14 -63 -59 -63 -95 0 -33 28 -78 58 -93 15 -8 68
-17 117 -20 159 -10 330 -73 460 -169 218 -162 338 -376 367 -653 11 -109 14
-123 39 -147 48 -49 143 -31 169 32 18 45 7 202 -24 325 -30 119 -112 291
-184 386 -187 247 -463 405 -765 438 -121 14 -135 13 -174 -4z"/>
<path d="M6414 12077 c-23 -20 -28 -34 -32 -85 -9 -124 32 -318 98 -459 144
-310 408 -529 738 -614 78 -20 172 -32 382 -49 450 -36 791 -161 1115 -409 83
-63 245 -221 316 -307 261 -319 418 -721 436 -1119 3 -71 12 -145 19 -162 26
-66 124 -81 174 -28 31 33 36 98 21 263 -46 500 -251 953 -591 1306 -383 398
-867 625 -1425 666 -306 23 -393 39 -525 95 -312 131 -516 427 -546 789 -5 69
-10 83 -34 108 -38 37 -105 40 -146 5z"/>
<path d="M5425 9021 c-62 -26 -73 -81 -56 -283 24 -274 91 -516 210 -763 346
-715 1057 -1183 1838 -1212 l152 -6 30 31 c26 25 31 38 31 77 0 37 -5 52 -28
74 -26 26 -33 28 -154 34 -646 35 -1203 353 -1555 888 -181 276 -297 628 -310
939 -2 69 -9 140 -15 158 -17 55 -86 86 -143 63z"/>
<path d="M2660 8255 c0 -10 12 -60 26 -112 14 -52 23 -97 21 -100 -3 -2 -37
-13 -76 -23 -79 -20 -69 -26 -91 60 -28 111 -31 120 -46 120 -25 0 -26 -24 -4
-110 12 -45 19 -88 17 -95 -7 -16 -118 -40 -126 -26 -4 5 -18 53 -31 106 -13
52 -29 95 -35 95 -33 -1 -34 -16 -4 -135 16 -66 31 -125 33 -131 3 -7 76 7
211 42 114 29 209 55 211 57 3 2 -11 62 -29 133 -29 112 -37 129 -55 132 -15
2 -22 -2 -22 -13z"/>
<path d="M2432 7642 c-18 -12 88 -316 112 -320 26 -5 28 19 6 82 -11 33 -20
60 -20 62 0 1 83 30 184 64 188 62 190 63 169 102 -2 3 -83 -20 -180 -53 -98
-32 -181 -59 -184 -59 -4 0 -17 29 -29 65 -21 63 -31 73 -58 57z"/>
<path d="M2870 7079 c-185 -78 -174 -79 -206 12 -19 53 -22 55 -47 37 -14 -12
-10 -27 46 -162 34 -82 67 -151 72 -153 6 -1 16 1 24 6 12 8 10 20 -13 72 -21
49 -24 64 -14 70 7 5 87 38 178 75 91 37 166 69 168 70 8 5 -20 44 -31 43 -7
0 -86 -32 -177 -70z"/>
<path d="M3188 6779 c-16 -9 -13 -19 33 -110 28 -56 49 -102 47 -104 -9 -8
-130 -66 -133 -63 -1 2 -22 41 -45 88 -23 47 -44 86 -45 88 -2 2 -13 -1 -24
-8 -20 -10 -20 -12 24 -100 25 -49 45 -91 45 -93 0 -6 -120 -61 -124 -56 -2 2
-25 46 -50 97 -42 84 -48 91 -66 82 -11 -6 -20 -13 -20 -15 0 -13 116 -235
122 -235 5 0 94 43 198 95 l190 95 -62 125 c-35 69 -65 125 -68 125 -3 0 -13
-5 -22 -11z"/>
<path d="M3421 6321 c-11 -7 -3 -27 37 -95 l51 -86 -152 -90 c-84 -49 -158
-93 -166 -97 -14 -9 -7 -53 8 -53 4 0 91 49 193 108 l186 109 -61 106 c-34 59
-66 107 -72 107 -5 0 -16 -4 -24 -9z"/>
<path d="M3642 5820 c-26 -11 -260 -169 -267 -180 -2 -4 2 -16 10 -26 13 -18
20 -14 142 68 70 48 142 90 159 94 62 12 124 -45 124 -115 0 -43 -40 -84 -169
-171 -61 -41 -111 -80 -111 -86 0 -6 7 -17 15 -24 12 -10 37 3 142 76 70 49
138 104 150 123 44 65 20 173 -49 224 -30 23 -111 32 -146 17z"/>
<path d="M3955 5306 c-106 -46 -166 -168 -135 -275 57 -201 331 -226 425 -38
57 116 12 247 -107 308 -44 22 -138 25 -183 5z m175 -57 c121 -68 118 -233 -7
-306 -92 -54 -196 -24 -242 69 -26 54 -26 91 -2 143 46 100 162 144 251 94z"/>
<path d="M4460 4790 c-29 -121 -31 -126 -58 -111 -11 6 -35 11 -52 11 -65 0
-109 -43 -110 -105 0 -46 17 -76 88 -155 l50 -54 108 101 c60 56 131 124 158
151 46 48 48 51 33 72 -15 22 -16 21 -89 -49 l-75 -71 -21 23 -21 23 31 112
c30 108 30 113 13 132 -10 11 -21 20 -25 20 -3 0 -17 -45 -30 -100z m-56 -169
c17 -11 41 -33 53 -49 l22 -29 -49 -48 c-55 -54 -59 -54 -112 19 -32 44 -36
81 -11 108 21 23 58 23 97 -1z"/>
<path d="M5060 4096 c-107 -56 -203 -106 -213 -112 -15 -8 -15 -13 -4 -28 13
-17 27 -12 225 90 116 60 212 112 212 115 0 3 -6 12 -12 21 -12 15 -34 6 -208
-86z"/>
<path d="M5358 3827 c-114 -67 -206 -126 -204 -131 9 -35 38 -24 233 91 111
65 203 121 203 124 0 3 -6 12 -12 21 -12 14 -37 2 -220 -105z"/>
<path d="M6037 3431 c-122 -206 -102 -189 -172 -147 l-59 35 -18 -27 c-14 -21
-15 -29 -5 -38 16 -16 286 -174 296 -174 7 0 31 43 31 55 0 2 -25 18 -55 35
-30 17 -55 36 -55 42 0 5 43 82 96 170 53 87 94 160 93 162 -20 13 -59 36 -61
36 -2 0 -42 -67 -91 -149z"/>
<path d="M6391 3188 c-7 -123 -14 -235 -17 -249 -4 -22 0 -28 25 -39 35 -14 8
-32 244 164 l167 139 -30 19 c-17 10 -34 18 -38 18 -4 0 -27 -18 -51 -39 l-45
-39 -88 47 -88 46 0 62 c0 59 -2 63 -30 78 -16 8 -31 15 -33 15 -2 0 -9 -100
-16 -222z"/>
<path d="M6960 3118 c0 -13 5 -51 10 -84 23 -135 25 -121 -19 -129 -52 -9 -87
-36 -101 -81 -17 -51 -5 -97 34 -131 29 -26 193 -101 200 -92 8 12 166 406
166 415 0 11 -30 24 -56 24 -6 0 -26 -38 -44 -85 -24 -61 -38 -85 -50 -85 -28
0 -37 20 -49 120 -15 119 -18 127 -39 133 -9 3 -25 8 -34 12 -14 6 -18 2 -18
-17z m73 -295 c26 -9 47 -22 47 -29 0 -13 -39 -104 -45 -104 -19 0 -96 43
-109 61 -20 30 -20 31 5 63 24 31 38 32 102 9z"/>
<path d="M7531 2738 c-30 -90 -57 -173 -62 -185 l-8 -22 -65 22 c-36 11 -68
18 -71 15 -3 -3 -7 -18 -8 -33 -2 -27 1 -29 158 -81 88 -30 163 -54 166 -54 4
0 12 14 18 30 11 34 11 34 -77 61 -23 7 -42 17 -42 23 0 7 25 86 55 176 30 90
55 170 55 176 0 9 -48 34 -64 34 -1 0 -26 -73 -55 -162z"/>
<path d="M8005 2750 c-42 -17 -68 -58 -73 -112 -5 -64 12 -89 99 -149 48 -33
59 -45 59 -68 0 -67 -82 -83 -134 -27 -31 32 -34 33 -59 19 -35 -18 -34 -34 4
-72 52 -53 156 -65 215 -26 34 22 57 80 50 123 -6 41 -33 72 -103 119 -29 19
-55 43 -58 54 -23 72 76 110 136 53 16 -15 29 -34 29 -42 0 -10 6 -12 18 -7 9
4 25 10 35 12 40 12 -3 85 -67 114 -42 19 -116 24 -151 9z"/>
</g>
</svg>
