<svg xmlns="http://www.w3.org/2000/svg" xmlns:xlink="http://www.w3.org/1999/xlink" version="1.1" x="0px" y="0px" viewBox="0 0 120 150" style="enable-background:new 0 0 120 120;" xml:space="preserve"><g><path d="M-1562.6,85.2l-73.2-42.2v-84.5l73.2-42.2l73.1,42.2v84.5L-1562.6,85.2z M-1620.9,34.3l58.2,33.6l58.1-33.6v-67.1   l-58.1-33.6l-58.2,33.6V34.3z"/></g><g><path d="M-1706.9,334.5l-73.2-42.3v-84.5l73.2-42.2l73.1,42.2v84.5L-1706.9,334.5z M-1765.2,283.5l58.2,33.7l58.1-33.7v-67.1   l-58.1-33.6l-58.2,33.6V283.5z"/></g><g><path d="M-1418.3,334.5l-73.2-42.3v-84.5l73.2-42.2l73.1,42.2v84.5L-1418.3,334.5z M-1476.6,283.5l58.2,33.7l58.1-33.7v-67.1   l-58.1-33.6l-58.2,33.6V283.5z"/></g><g><rect x="-1713.1" y="117.8" transform="matrix(0.501 -0.8654 0.8654 0.501 -924.1422 -1352.2781)" width="156.7" height="15"/></g><g><rect x="-1641.4" y="242.4" width="157.3" height="15"/></g><g><rect x="-1499.5" y="47.8" transform="matrix(0.871 -0.4913 0.4913 0.871 -254.4748 -716.7516)" width="15" height="156.7"/></g><path d="M78.9,76.4l-4,6.9L46.8,66.9l4-6.9l-3.9-6.8l28.4-16l3.7,6.4h19.4l9.7-16.8L98.3,10H78.9l-9.7,16.8l4.3,7.4l-28.4,16  L41,43.2H21.6L11.9,60l9.7,16.8H41l4-6.9l28.2,16.3l-4,6.9l9.7,16.8h19.4l9.7-16.8l-9.7-16.8H78.9z M80.9,13.4h15.4l7.7,13.4  l-7.7,13.4H80.9l-7.7-13.4L80.9,13.4z M39.1,73.4H23.6L15.9,60l7.7-13.4h15.4L46.8,60L39.1,73.4z M96.4,106.6H80.9l-7.7-13.4  l7.7-13.4h15.4l7.7,13.4L96.4,106.6z"/><g><path d="M-1635-386.1h-84.5l-42.2-73.2l42.2-73.1h84.5l42.2,73.1L-1635-386.1z M-1710.8-401.1h67.1l33.6-58.2l-33.6-58.1h-67.1   l-33.6,58.1L-1710.8-401.1z"/></g><g><path d="M-1385.8-241.8h-84.5l-42.2-73.2l42.2-73.1h84.5l42.3,73.1L-1385.8-241.8z M-1461.6-256.8h67.1l33.7-58.2l-33.7-58.1h-67.1   l-33.6,58.1L-1461.6-256.8z"/></g><g><path d="M-1385.8-530.4h-84.5l-42.2-73.2l42.2-73.1h84.5l42.3,73.1L-1385.8-530.4z M-1461.6-545.4h67.1l33.7-58.2l-33.7-58.1h-67.1   l-33.6,58.1L-1461.6-545.4z"/></g><g><path d="M-1488.6-341.5l-19-11l7.5-13l19,11L-1488.6-341.5z M-1526.6-363.5l-19-11l7.5-13l19,11L-1526.6-363.5z M-1564.7-385.5   l-19-11l7.5-13l19,11L-1564.7-385.5z M-1602.8-407.6l-19-11l7.5-13l19,11L-1602.8-407.6z"/></g><g><path d="M-1616.3-485l-7.4-13.1l19.2-10.8l7.4,13.1L-1616.3-485z M-1578-506.6l-7.4-13.1l19.2-10.8l7.4,13.1L-1578-506.6z    M-1539.7-528.2l-7.4-13.1l19.2-10.8l7.4,13.1L-1539.7-528.2z M-1501.3-549.9l-7.4-13.1l19.2-10.8l7.4,13.1L-1501.3-549.9z"/></g><g><polygon points="-2791.3,-482.9 -2753.4,-548.5 -2677.6,-548.5 -2639.7,-482.9 -2677.6,-417.2 -2753.4,-417.2  "/><path d="M-2673.3-409.7h-84.5l-42.2-73.2l42.2-73.1h84.5l42.2,73.1L-2673.3-409.7z M-2749.1-424.7h67.1l33.6-58.2l-33.6-58.1h-67.1   l-33.6,58.1L-2749.1-424.7z"/></g><g><polygon points="-2542.1,-338.6 -2504.2,-404.2 -2428.4,-404.2 -2390.4,-338.6 -2428.4,-272.9 -2504.2,-272.9  "/><path d="M-2424.1-265.4h-84.5l-42.2-73.2l42.2-73.1h84.5l42.3,73.1L-2424.1-265.4z M-2499.9-280.4h67.1l33.7-58.2l-33.7-58.1h-67.1   l-33.6,58.1L-2499.9-280.4z"/></g><g><polygon points="-2542.1,-627.2 -2504.2,-692.8 -2428.4,-692.8 -2390.4,-627.2 -2428.4,-561.5 -2504.2,-561.5  "/><path d="M-2424.1-554h-84.5l-42.2-73.2l42.2-73.1h84.5l42.3,73.1L-2424.1-554z M-2499.9-569h67.1l33.7-58.2l-33.7-58.1h-67.1   l-33.6,58.1L-2499.9-569z"/></g><g><path d="M-2526.9-365l-19-11l7.5-13l19,11L-2526.9-365z M-2564.9-387l-19-11l7.5-13l19,11L-2564.9-387z M-2603-409.1l-19-11l7.5-13   l19,11L-2603-409.1z M-2641.1-431.1l-19-11l7.5-13l19,11L-2641.1-431.1z"/></g><g><path d="M-2654.6-508.6l-7.4-13.1l19.2-10.8l7.4,13.1L-2654.6-508.6z M-2616.3-530.2l-7.4-13.1l19.2-10.8l7.4,13.1L-2616.3-530.2z    M-2578-551.8l-7.4-13.1l19.2-10.8l7.4,13.1L-2578-551.8z M-2539.7-573.4l-7.4-13.1l19.2-10.8l7.4,13.1L-2539.7-573.4z"/></g><g><path d="M-1504.4,761.6l-73.1-42.2v-84.5l73.1-42.2l73.2,42.2v84.5L-1504.4,761.6z M-1562.5,710.7l58.1,33.6l58.2-33.6v-67.1   l-58.2-33.6l-58.1,33.6V710.7z"/></g><g><path d="M-1648.7,1010.9l-73.1-42.3v-84.5l73.1-42.2l73.2,42.2v84.5L-1648.7,1010.9z M-1706.8,959.9l58.1,33.7l58.2-33.7v-67.1   l-58.2-33.6l-58.1,33.6V959.9z"/></g><g><path d="M-1360,1010.9l-73.2-42.3v-84.5l73.2-42.2l73.1,42.2v84.5L-1360,1010.9z M-1418.2,959.9l58.2,33.7l58.1-33.7v-67.1   l-58.1-33.6l-58.2,33.6V959.9z"/></g><g><path d="M-1609.3,873.3l-13-7.5l11-19l13,7.5L-1609.3,873.3z M-1587.3,835.2l-13-7.5l11-19l13,7.5L-1587.3,835.2z M-1565.2,797.1   l-13-7.5l11-19l13,7.5L-1565.2,797.1z M-1543.2,759l-13-7.5l11-19l13,7.5L-1543.2,759z"/></g><g><path d="M-1425.7,933.8h-22v-15h22V933.8z M-1469.7,933.8h-22v-15h22V933.8z M-1513.7,933.8h-22v-15h22V933.8z M-1557.7,933.8h-22   v-15h22V933.8z"/></g><g><path d="M-1403,872.1l-10.8-19.2l13.1-7.4l10.8,19.2L-1403,872.1z M-1424.6,833.8l-10.8-19.2l13.1-7.4l10.8,19.2L-1424.6,833.8z    M-1446.2,795.5l-10.8-19.2l13.1-7.4l10.8,19.2L-1446.2,795.5z M-1467.8,757.1l-10.8-19.2l13.1-7.4l10.8,19.2L-1467.8,757.1z"/></g><g><polygon points="-2544.4,-42.6 -2478.8,-4.7 -2478.8,71.1 -2544.4,109 -2610.1,71.1 -2610.1,-4.7  "/><path d="M-2544.4,117.7l-73.2-42.2V-9l73.2-42.2l73.1,42.2v84.5L-2544.4,117.7z M-2602.6,66.8l58.2,33.6l58.1-33.6V-0.4l-58.1-33.6   l-58.2,33.6V66.8z"/></g><g><polygon points="-2688.7,206.6 -2623.1,244.5 -2623.1,320.3 -2688.7,358.3 -2754.4,320.3 -2754.4,244.5  "/><path d="M-2688.7,367l-73.2-42.3v-84.5l73.2-42.2l73.1,42.2v84.5L-2688.7,367z M-2746.9,316l58.2,33.7l58.1-33.7v-67.1l-58.1-33.6   l-58.2,33.6V316z"/></g><g><polygon points="-2400.1,206.6 -2334.5,244.5 -2334.5,320.3 -2400.1,358.3 -2465.8,320.3 -2465.8,244.5  "/><path d="M-2400.1,367l-73.2-42.3v-84.5l73.2-42.2l73.1,42.2v84.5L-2400.1,367z M-2458.3,316l58.2,33.7l58.1-33.7v-67.1l-58.1-33.6   l-58.2,33.6V316z"/></g><g><rect x="-2694.9" y="150.3" transform="matrix(0.501 -0.8654 0.8654 0.501 -1442.1437 -2185.7039)" width="156.7" height="15"/></g><g><rect x="-2623.1" y="274.9" width="157.3" height="15"/></g><g><rect x="-2481.2" y="80.3" transform="matrix(0.871 -0.4913 0.4913 0.871 -397.1099 -1194.9141)" width="15" height="156.7"/></g><g><polygon points="-2512.3,640.5 -2446.6,678.4 -2446.6,754.2 -2512.3,792.1 -2577.9,754.2 -2577.9,678.4  "/><path d="M-2512.3,800.7l-73.1-42.2V674l73.1-42.2l73.2,42.2v84.5L-2512.3,800.7z M-2570.4,749.8l58.1,33.6l58.2-33.6v-67.1   l-58.2-33.6l-58.1,33.6V749.8z"/></g><g><polygon points="-2656.6,889.7 -2590.9,927.6 -2590.9,1003.4 -2656.6,1041.4 -2722.2,1003.4 -2722.2,927.6  "/><path d="M-2656.6,1050l-73.1-42.3v-84.5l73.1-42.2l73.2,42.2v84.5L-2656.6,1050z M-2714.7,999l58.1,33.7l58.2-33.7v-67.1   l-58.2-33.6l-58.1,33.6V999z"/></g><g><polygon points="-2367.9,889.7 -2302.3,927.6 -2302.3,1003.4 -2367.9,1041.4 -2433.6,1003.4 -2433.6,927.6  "/><path d="M-2367.9,1050l-73.2-42.3v-84.5l73.2-42.2l73.1,42.2v84.5L-2367.9,1050z M-2426.1,999l58.2,33.7l58.1-33.7v-67.1   l-58.1-33.6l-58.2,33.6V999z"/></g><g><path d="M-2617.2,912.4l-13-7.5l11-19l13,7.5L-2617.2,912.4z M-2595.1,874.3l-13-7.5l11-19l13,7.5L-2595.1,874.3z M-2573.1,836.3   l-13-7.5l11-19l13,7.5L-2573.1,836.3z M-2551,798.2l-13-7.5l11-19l13,7.5L-2551,798.2z"/></g><g><path d="M-2433.6,973h-22v-15h22V973z M-2477.6,973h-22v-15h22V973z M-2521.6,973h-22v-15h22V973z M-2565.6,973h-22v-15h22V973z"/></g><g><path d="M-2410.8,911.3l-10.8-19.2l13.1-7.4l10.8,19.2L-2410.8,911.3z M-2432.4,872.9l-10.8-19.2l13.1-7.4l10.8,19.2L-2432.4,872.9   z M-2454.1,834.6l-10.8-19.2l13.1-7.4l10.8,19.2L-2454.1,834.6z M-2475.7,796.3l-10.8-19.2l13.1-7.4l10.8,19.2L-2475.7,796.3z"/></g><g><path d="M-1745,1872.6h-84.5l-42.2-73.2l42.2-73.1h84.5l42.2,73.1L-1745,1872.6z M-1820.8,1857.6h67.1l33.6-58.2l-33.6-58.1h-67.1   l-33.6,58.1L-1820.8,1857.6z"/></g><g><path d="M-1441.8,1872.6h-84.5l-42.2-73.2l42.2-73.1h84.5l42.2,73.1L-1441.8,1872.6z M-1517.6,1857.6h67.1l33.6-58.2l-33.6-58.1   h-67.1l-33.6,58.1L-1517.6,1857.6z"/></g><g><path d="M-1138.6,1872.6h-84.5l-42.2-73.2l42.2-73.1h84.5l42.2,73.1L-1138.6,1872.6z M-1214.4,1857.6h67.1l33.6-58.2l-33.6-58.1   h-67.1l-33.6,58.1L-1214.4,1857.6z"/></g><g><path d="M-1504.4,3125.4l-73.1-42.2v-84.5l73.1-42.3l73.2,42.3v84.5L-1504.4,3125.4z M-1562.5,3074.5l58.1,33.6l58.2-33.6v-67.1   l-58.2-33.7l-58.1,33.7V3074.5z"/></g><g><path d="M-1504.4,2885.4l-73.1-42.2v-84.6l73.1-42.2l73.2,42.2v84.6L-1504.4,2885.4z M-1562.5,2834.5l58.1,33.6l58.2-33.6v-67.2   l-58.2-33.6l-58.1,33.6V2834.5z"/></g><g><path d="M-1705.1,3005.4l-73.2-42.2v-84.6l73.2-42.2l73.1,42.2v84.6L-1705.1,3005.4z M-1763.3,2954.5l58.2,33.6l58.1-33.6v-67.2   l-58.1-33.6l-58.2,33.6V2954.5z"/></g><g><path d="M-1303.6,3005.4l-73.1-42.2v-84.6l73.1-42.2l73.2,42.2v84.6L-1303.6,3005.4z M-1361.7,2954.5l58.1,33.6l58.2-33.6v-67.2   l-58.2-33.6l-58.1,33.6V2954.5z"/></g><g><path d="M-1587.8,3000.6l-18.6-11.8l8-12.7l18.6,11.8L-1587.8,3000.6z M-1625,2977l-18.6-11.8l8-12.7l18.6,11.8L-1625,2977z"/></g><g><path d="M-1434.7,3009.4l-8-12.7l18.6-11.8l8,12.7L-1434.7,3009.4z M-1397.6,2985.7l-8-12.7l18.6-11.8l8,12.7L-1397.6,2985.7z"/></g><g><path d="M-1387,2880.5l-18.6-11.8l8-12.7l18.6,11.8L-1387,2880.5z M-1424.1,2856.9l-18.6-11.8l8-12.7l18.6,11.8L-1424.1,2856.9z"/></g><g><path d="M-1621.7,2880.5l-8-12.7l18.6-11.8l8,12.7L-1621.7,2880.5z M-1584.6,2856.9l-8-12.7l18.6-11.8l8,12.7L-1584.6,2856.9z"/></g><g><path d="M-1482.8,2457l-73.1-42.2v-84.5l73.1-42.3l73.2,42.3v84.5L-1482.8,2457z M-1540.9,2406.1l58.1,33.6l58.2-33.6V2339   l-58.2-33.7l-58.1,33.7V2406.1z"/></g><g><path d="M-1482.8,2217l-73.1-42.2v-84.6l73.1-42.2l73.2,42.2v84.6L-1482.8,2217z M-1540.9,2166.1l58.1,33.6l58.2-33.6v-67.2   l-58.2-33.6l-58.1,33.6V2166.1z"/></g><g><path d="M-1683.4,2337l-73.2-42.2v-84.6l73.2-42.2l73.1,42.2v84.6L-1683.4,2337z M-1741.7,2286.1l58.2,33.6l58.1-33.6v-67.2   l-58.1-33.6l-58.2,33.6V2286.1z"/></g><g><path d="M-1282,2337l-73.1-42.2v-84.6l73.1-42.2l73.2,42.2v84.6L-1282,2337z M-1340.1,2286.1l58.1,33.6l58.2-33.6v-67.2l-58.2-33.6   l-58.1,33.6V2286.1z"/></g><g><rect x="-1590.6" y="2271.3" transform="matrix(0.5366 -0.8438 0.8438 0.5366 -2684.8774 -264.3099)" width="15" height="82.4"/></g><g><rect x="-1423.5" y="2305" transform="matrix(0.8438 -0.5367 0.5367 0.8438 -1457.0135 -380.6052)" width="82.4" height="15"/></g><g><rect x="-1389.8" y="2151.3" transform="matrix(0.5358 -0.8444 0.8444 0.5358 -2492.9507 -149.355)" width="15" height="82.3"/></g><g><rect x="-1624.3" y="2185" transform="matrix(0.8444 -0.5358 0.5358 0.8444 -1421.0077 -506.9482)" width="82.3" height="15"/></g><g><polygon points="-2544.5,2993.7 -2478.8,3031.7 -2478.8,3107.5 -2544.5,3145.4 -2610.1,3107.5 -2610.1,3031.7  "/><path d="M-2544.5,3154l-73.1-42.2v-84.5l73.1-42.3l73.2,42.3v84.5L-2544.5,3154z M-2602.6,3103.2l58.1,33.6l58.2-33.6V3036   l-58.2-33.7l-58.1,33.7V3103.2z"/></g><g><polygon points="-2544.5,2753.7 -2478.8,2791.6 -2478.8,2867.5 -2544.5,2905.4 -2610.1,2867.5 -2610.1,2791.6  "/><path d="M-2544.5,2914l-73.1-42.2v-84.6l73.1-42.2l73.2,42.2v84.6L-2544.5,2914z M-2602.6,2863.2l58.1,33.6l58.2-33.6v-67.2   l-58.2-33.6l-58.1,33.6V2863.2z"/></g><g><polygon points="-2745.2,2873.7 -2679.6,2911.6 -2679.6,2987.5 -2745.2,3025.4 -2810.9,2987.5 -2810.9,2911.6  "/><path d="M-2745.2,3034l-73.2-42.2v-84.6l73.2-42.2l73.1,42.2v84.6L-2745.2,3034z M-2803.4,2983.2l58.2,33.6l58.1-33.6v-67.2   l-58.1-33.6l-58.2,33.6V2983.2z"/></g><g><polygon points="-2343.7,2873.7 -2278,2911.6 -2278,2987.5 -2343.7,3025.4 -2409.3,2987.5 -2409.3,2911.6  "/><path d="M-2343.7,3034l-73.1-42.2v-84.6l73.1-42.2l73.2,42.2v84.6L-2343.7,3034z M-2401.8,2983.2l58.1,33.6l58.2-33.6v-67.2   l-58.2-33.6l-58.1,33.6V2983.2z"/></g><g><path d="M-2627.9,3029.2l-18.6-11.8l8-12.7l18.6,11.8L-2627.9,3029.2z M-2665.1,3005.6l-18.6-11.8l8-12.7l18.6,11.8L-2665.1,3005.6   z"/></g><g><path d="M-2474.8,3038l-8-12.7l18.6-11.8l8,12.7L-2474.8,3038z M-2437.7,3014.4l-8-12.7l18.6-11.8l8,12.7L-2437.7,3014.4z"/></g><g><path d="M-2427.1,2909.2l-18.6-11.8l8-12.7l18.6,11.8L-2427.1,2909.2z M-2464.2,2885.6l-18.6-11.8l8-12.7l18.6,11.8L-2464.2,2885.6   z"/></g><g><path d="M-2661.8,2909.2l-8-12.7l18.6-11.8l8,12.7L-2661.8,2909.2z M-2624.7,2885.6l-8-12.7l18.6-11.8l8,12.7L-2624.7,2885.6z"/></g><g><polygon points="-2544.5,2323.9 -2478.8,2361.9 -2478.8,2437.7 -2544.5,2475.6 -2610.1,2437.7 -2610.1,2361.9  "/><path d="M-2544.5,2484.2l-73.1-42.2v-84.5l73.1-42.3l73.2,42.3v84.5L-2544.5,2484.2z M-2602.6,2433.4l58.1,33.6l58.2-33.6v-67.1   l-58.2-33.7l-58.1,33.7V2433.4z"/></g><g><polygon points="-2544.5,2083.9 -2478.8,2121.8 -2478.8,2197.7 -2544.5,2235.6 -2610.1,2197.7 -2610.1,2121.8  "/><path d="M-2544.5,2244.2l-73.1-42.2v-84.6l73.1-42.2l73.2,42.2v84.6L-2544.5,2244.2z M-2602.6,2193.4l58.1,33.6l58.2-33.6v-67.2   l-58.2-33.6l-58.1,33.6V2193.4z"/></g><g><polygon points="-2745.2,2203.9 -2679.6,2241.8 -2679.6,2317.7 -2745.2,2355.6 -2810.9,2317.7 -2810.9,2241.8  "/><path d="M-2745.2,2364.2l-73.2-42.2v-84.6l73.2-42.2l73.1,42.2v84.6L-2745.2,2364.2z M-2803.4,2313.4l58.2,33.6l58.1-33.6v-67.2   l-58.1-33.6l-58.2,33.6V2313.4z"/></g><g><polygon points="-2343.7,2203.9 -2278,2241.8 -2278,2317.7 -2343.7,2355.6 -2409.3,2317.7 -2409.3,2241.8  "/><path d="M-2343.7,2364.2l-73.1-42.2v-84.6l73.1-42.2l73.2,42.2v84.6L-2343.7,2364.2z M-2401.8,2313.4l58.1,33.6l58.2-33.6v-67.2   l-58.2-33.6l-58.1,33.6V2313.4z"/></g><g><rect x="-2652.4" y="2298.6" transform="matrix(0.5366 -0.8438 0.8438 0.5366 -3199.853 -1147.5953)" width="15" height="82.4"/></g><g><rect x="-2485.2" y="2332.3" transform="matrix(0.8438 -0.5367 0.5367 0.8438 -1637.4581 -946.1539)" width="82.4" height="15"/></g><g><rect x="-2451.6" y="2178.6" transform="matrix(0.5358 -0.8444 0.8444 0.5358 -3008.8655 -1033.2039)" width="15" height="82.3"/></g><g><rect x="-2686" y="2212.2" transform="matrix(0.8444 -0.5358 0.5358 0.8444 -1600.8512 -1071.5461)" width="82.3" height="15"/></g><g><path d="M-619.8,3869.9l-73.2-42.1l-0.1-84.5l73.1-42.3l73.2,42.1l0.2,84.4L-619.8,3869.9z M-678.1,3819l58.2,33.5l58.1-33.7   l-0.1-67.1l-58.2-33.5l-58.1,33.6L-678.1,3819z"/></g><g><path d="M-357.2,3719l-73-42.4l0.3-84.5l73.2-42l73,42.4l-0.1,84.5L-357.2,3719z M-415.2,3668l58,33.7l58.3-33.4l0.1-67.1   l-58.1-33.7l-58.2,33.4L-415.2,3668z"/></g><g><path d="M-619.4,3566.6l-73-42.4l0.3-84.5l73.2-42l73,42.4l-0.1,84.5L-619.4,3566.6z M-677.3,3515.5l58,33.7l58.3-33.4l0.1-67.1   l-58.1-33.7l-58.2,33.4L-677.3,3515.5z"/></g><g><path d="M-882.4,3717.3l-73-42.4l0.3-84.5l73.2-42l73,42.4l-0.1,84.5L-882.4,3717.3z M-940.4,3666.2l58,33.7l58.3-33.4l0.1-67.1   l-58.1-33.7l-58.2,33.4L-940.4,3666.2z"/></g><g><path d="M-883.3,4020.7l-73-42.4l0.3-84.5l73.2-42l73,42.4l-0.1,84.5L-883.3,4020.7z M-941.3,3969.6l58,33.7l58.3-33.4l0.1-67.1   l-58.1-33.7l-58.2,33.4L-941.3,3969.6z"/></g><g><path d="M-358.1,4022.3l-73-42.4l0.3-84.5l73.2-42l73,42.4l-0.1,84.5L-358.1,4022.3z M-416,3971.2l58,33.7l58.3-33.4l0.1-67.1   l-58.1-33.7l-58.2,33.4L-416,3971.2z"/></g><g><path d="M-621.1,4173.1l-73-42.4l0.3-84.5l73.2-42l73,42.4l-0.1,84.5L-621.1,4173.1z M-679.1,4122l58,33.7l58.3-33.4l0.1-67.1   l-58.1-33.7l-58.2,33.4L-679.1,4122z"/></g><g><rect x="-696.2" y="3929.5" transform="matrix(2.994778e-03 -1 1 2.994778e-03 -4555.5493 3304.7805)" width="151.6" height="15"/></g><g><rect x="-564.3" y="3702.5" transform="matrix(0.8675 -0.4975 0.4975 0.8675 -1910.3579 248.6626)" width="151.6" height="15"/></g><g><path d="M-1559.9,1806.9h-19.6v-15h19.6V1806.9z M-1601.5,1806.9h-22v-15h22V1806.9z M-1645.5,1806.9h-22v-15h22V1806.9z    M-1689.5,1806.9h-22v-15h22V1806.9z"/></g><g><path d="M-1256.7,1806.9h-19.6v-15h19.6V1806.9z M-1298.3,1806.9h-22v-15h22V1806.9z M-1342.3,1806.9h-22v-15h22V1806.9z    M-1386.3,1806.9h-22v-15h22V1806.9z"/></g><g><path d="M-1752.9,1402.4h-84.5l-42.2-73.2l42.2-73.1h84.5l42.2,73.1L-1752.9,1402.4z M-1828.7,1387.4h67.1l33.6-58.2l-33.6-58.1   h-67.1l-33.6,58.1L-1828.7,1387.4z"/></g><g><path d="M-1449.7,1402.4h-84.5l-42.2-73.2l42.2-73.1h84.5l42.2,73.1L-1449.7,1402.4z M-1525.5,1387.4h67.1l33.6-58.2l-33.6-58.1   h-67.1l-33.6,58.1L-1525.5,1387.4z"/></g><g><path d="M-1146.5,1402.4h-84.5l-42.2-73.2l42.2-73.1h84.5l42.2,73.1L-1146.5,1402.4z M-1222.3,1387.4h67.1l33.6-58.2l-33.6-58.1   h-67.1l-33.6,58.1L-1222.3,1387.4z"/></g><g><rect x="-1719.4" y="1321.7" width="151.6" height="15"/></g><g><rect x="-1416.2" y="1321.7" width="151.6" height="15"/></g><g><polygon points="-2739,1787.8 -2776.9,1853.5 -2852.7,1853.5 -2890.6,1787.8 -2852.7,1722.2 -2776.9,1722.2  "/><path d="M-2772.6,1861h-84.5l-42.2-73.2l42.2-73.1h84.5l42.2,73.1L-2772.6,1861z M-2848.4,1846h67.1l33.6-58.2l-33.6-58.1h-67.1   l-33.6,58.1L-2848.4,1846z"/></g><g><polygon points="-2435.8,1787.8 -2473.7,1853.5 -2549.5,1853.5 -2587.4,1787.8 -2549.5,1722.2 -2473.7,1722.2  "/><path d="M-2469.4,1861h-84.5l-42.2-73.2l42.2-73.1h84.5l42.2,73.1L-2469.4,1861z M-2545.2,1846h67.1l33.6-58.2l-33.6-58.1h-67.1   l-33.6,58.1L-2545.2,1846z"/></g><g><polygon points="-2132.6,1787.8 -2170.5,1853.5 -2246.3,1853.5 -2284.2,1787.8 -2246.3,1722.2 -2170.5,1722.2  "/><path d="M-2166.2,1861h-84.5l-42.2-73.2l42.2-73.1h84.5l42.2,73.1L-2166.2,1861z M-2242,1846h67.1l33.6-58.2l-33.6-58.1h-67.1   l-33.6,58.1L-2242,1846z"/></g><g><path d="M-2587.4,1795.3h-19.6v-15h19.6V1795.3z M-2629,1795.3h-22v-15h22V1795.3z M-2673,1795.3h-22v-15h22V1795.3z M-2717,1795.3   h-22v-15h22V1795.3z"/></g><g><path d="M-2284.2,1795.3h-19.6v-15h19.6V1795.3z M-2325.8,1795.3h-22v-15h22V1795.3z M-2369.8,1795.3h-22v-15h22V1795.3z    M-2413.8,1795.3h-22v-15h22V1795.3z"/></g><g><polygon points="-2739,1367.1 -2776.9,1432.8 -2852.7,1432.8 -2890.6,1367.1 -2852.7,1301.5 -2776.9,1301.5  "/><path d="M-2772.6,1440.3h-84.5l-42.2-73.2l42.2-73.1h84.5l42.2,73.1L-2772.6,1440.3z M-2848.4,1425.3h67.1l33.6-58.2l-33.6-58.1   h-67.1l-33.6,58.1L-2848.4,1425.3z"/></g><g><polygon points="-2435.8,1367.1 -2473.7,1432.8 -2549.5,1432.8 -2587.4,1367.1 -2549.5,1301.5 -2473.7,1301.5  "/><path d="M-2469.4,1440.3h-84.5l-42.2-73.2l42.2-73.1h84.5l42.2,73.1L-2469.4,1440.3z M-2545.2,1425.3h67.1l33.6-58.2l-33.6-58.1   h-67.1l-33.6,58.1L-2545.2,1425.3z"/></g><g><polygon points="-2132.6,1367.1 -2170.5,1432.8 -2246.3,1432.8 -2284.2,1367.1 -2246.3,1301.5 -2170.5,1301.5  "/><path d="M-2166.2,1440.3h-84.5l-42.2-73.2l42.2-73.1h84.5l42.2,73.1L-2166.2,1440.3z M-2242,1425.3h67.1l33.6-58.2l-33.6-58.1   h-67.1l-33.6,58.1L-2242,1425.3z"/></g><g><rect x="-2739" y="1359.6" width="151.6" height="15"/></g><g><rect x="-2435.8" y="1359.6" width="151.6" height="15"/></g><g><rect x="-496.4" y="3785.8" transform="matrix(0.5026 -0.8645 0.8645 0.5026 -3581.656 1498.2122)" width="15" height="151.6"/></g><g><rect x="-827.3" y="3853.3" transform="matrix(0.8675 -0.4975 0.4975 0.8675 -2020.2544 137.7958)" width="151.6" height="15"/></g><g><rect x="-758.5" y="3633.3" transform="matrix(0.5031 -0.8642 0.8642 0.5031 -3578.5457 1193.8798)" width="15" height="151.6"/></g><g><rect x="-695.3" y="3626.3" transform="matrix(2.994778e-03 -1 1 2.994778e-03 -4251.4243 3003.384)" width="151.6" height="15"/></g><g><path d="M374.2,3908.3l-73.2-42.1l-0.1-84.5l73.1-42.3l73.2,42.1l0.2,84.4L374.2,3908.3z M316,3857.5l58.2,33.5l58.1-33.7   l-0.1-67.1l-58.2-33.5l-58.1,33.6L316,3857.5z"/></g><g><path d="M636.9,3757.5l-73-42.4l0.3-84.5l73.2-42l73,42.4l-0.1,84.5L636.9,3757.5z M578.9,3706.4l58,33.7l58.3-33.4l0.1-67.1   l-58.1-33.7l-58.2,33.4L578.9,3706.4z"/></g><g><path d="M374.7,3605.1l-73-42.4l0.3-84.5l73.2-42l73,42.4l-0.1,84.5L374.7,3605.1z M316.7,3554l58,33.7l58.3-33.4l0.1-67.1   l-58.1-33.7l-58.2,33.4L316.7,3554z"/></g><g><path d="M111.7,3755.8l-73-42.4l0.3-84.5l73.2-42l73,42.4l-0.1,84.5L111.7,3755.8z M53.7,3704.7l58,33.7l58.3-33.4l0.1-67.1   l-58.1-33.7l-58.2,33.4L53.7,3704.7z"/></g><g><path d="M110.8,4059.2l-73-42.4l0.3-84.5l73.2-42l73,42.4l-0.1,84.5L110.8,4059.2z M52.8,4008.1l58,33.7l58.3-33.4l0.1-67.1   l-58.1-33.7L53,3940.9L52.8,4008.1z"/></g><g><path d="M636,4060.7l-73-42.4l0.3-84.5l73.2-42l73,42.4l-0.1,84.5L636,4060.7z M578,4009.7l58,33.7l58.3-33.4l0.1-67.1l-58.1-33.7   l-58.2,33.4L578,4009.7z"/></g><g><path d="M372.9,4211.6l-73-42.4l0.3-84.5l73.2-42l73,42.4l-0.1,84.5L372.9,4211.6z M314.9,4160.5l58,33.7l58.3-33.4l0.1-67.1   l-58.1-33.7l-58.2,33.4L314.9,4160.5z"/></g><g><path d="M380.9,4051.3l-15,0l0.1-19.6l15,0L380.9,4051.3z M381,4009.7l-15,0l0.1-22l15,0L381,4009.7z M381.2,3965.7l-15,0l0.1-22   l15,0L381.2,3965.7z M381.3,3921.7l-15,0l0.1-22l15,0L381.3,3921.7z"/></g><g><path d="M443.6,3792.7l-7.5-13l19.1-10.9l7.5,13L443.6,3792.7z M481.8,3770.8l-7.5-13l19.1-10.9l7.5,13L481.8,3770.8z    M519.9,3748.9l-7.5-13l19.1-10.9l7.5,13L519.9,3748.9z M558.1,3727l-7.5-13l17-9.8l7.5,13L558.1,3727z"/></g><g><path d="M567,3944.7l-17-9.9l7.5-13l17,9.9L567,3944.7z M531,3923.8l-19-11.1l7.5-13l19,11.1L531,3923.8z M493,3901.7l-19-11.1   l7.5-13l19,11.1L493,3901.7z M454.9,3879.5l-19-11.1l7.5-13l19,11.1L454.9,3879.5z"/></g><g><path d="M180.6,3943.5l-7.5-13l17-9.8l7.5,13L180.6,3943.5z M216.7,3922.8l-7.5-13l19.1-10.9l7.5,13L216.7,3922.8z M254.8,3900.9   l-7.5-13l19.1-10.9l7.5,13L254.8,3900.9z M293,3879l-7.5-13l19.1-10.9l7.5,13L293,3879z"/></g><g><path d="M304.8,3792.2l-19-11.1l7.5-13l19,11.1L304.8,3792.2z M266.8,3770.1l-19-11.1l7.5-13l19,11.1L266.8,3770.1z M228.8,3747.9   l-19-11.1l7.5-13l19,11.1L228.8,3747.9z M190.7,3725.8l-16.9-9.9l7.5-13l16.9,9.9L190.7,3725.8z"/></g><g><path d="M381.8,3748.1l-15,0l0.1-22l15,0L381.8,3748.1z M382,3704.1l-15,0l0.1-22l15,0L382,3704.1z M382.1,3660.1l-15,0l0.1-22   l15,0L382.1,3660.1z M382.2,3616.1l-15,0l0.1-19.6l15,0L382.2,3616.1z"/></g><g><polygon points="-3386.5,3709.4 -3320.9,3671.5 -3255.2,3709.3 -3255.1,3785 -3320.7,3823.1 -3386.4,3785.3  "/><path d="M-3320.7,3831.7l-73.2-42.1l-0.1-84.5l73.1-42.3l73.2,42.1l0.2,84.4L-3320.7,3831.7z M-3378.9,3780.9l58.2,33.5l58.1-33.7   l-0.1-67.1l-58.2-33.5l-58.1,33.6L-3378.9,3780.9z"/></g><g><polygon points="-3123.3,3558.3 -3057.6,3520.6 -2992,3558.7 -2992.1,3634.5 -3058,3672.2 -3123.5,3634.1  "/><path d="M-3058,3680.9l-73-42.4l0.3-84.5l73.2-42l73,42.4l-0.1,84.5L-3058,3680.9z M-3116,3629.8l58,33.7l58.3-33.4l0.1-67.1   l-58.1-33.7l-58.2,33.4L-3116,3629.8z"/></g><g><polygon points="-3385.5,3405.9 -3319.7,3368.2 -3254.2,3406.3 -3254.3,3482.1 -3320.2,3519.8 -3385.7,3481.7  "/><path d="M-3320.2,3528.5l-73-42.4l0.3-84.5l73.2-42l73,42.4l-0.1,84.5L-3320.2,3528.5z M-3378.2,3477.4l58,33.7l58.3-33.4l0.1-67.1   l-58.1-33.7l-58.2,33.4L-3378.2,3477.4z"/></g><g><polygon points="-3648.5,3556.6 -3582.7,3518.9 -3517.2,3557 -3517.3,3632.8 -3583.2,3670.5 -3648.7,3632.4  "/><path d="M-3583.2,3679.2l-73-42.4l0.3-84.5l73.2-42l73,42.4l-0.1,84.5L-3583.2,3679.2z M-3641.2,3628.1l58,33.7l58.3-33.4l0.1-67.1   l-58.1-33.7l-58.2,33.4L-3641.2,3628.1z"/></g><g><polygon points="-3649.4,3859.9 -3583.7,3822.3 -3518.1,3860.4 -3518.3,3936.2 -3584.1,3973.9 -3649.7,3935.8  "/><path d="M-3584.2,3982.5l-73-42.4l0.3-84.5l73.2-42l73,42.4l-0.1,84.5L-3584.2,3982.5z M-3642.2,3931.5l58,33.7l58.3-33.4l0.1-67.1   l-58.1-33.7l-58.2,33.4L-3642.2,3931.5z"/></g><g><polygon points="-3124.2,3861.5 -3058.4,3823.9 -2992.9,3862 -2993,3937.8 -3058.9,3975.5 -3124.4,3937.4  "/><path d="M-3058.9,3984.1l-73-42.4l0.3-84.5l73.2-42l73,42.4l-0.1,84.5L-3058.9,3984.1z M-3116.9,3933.1l58,33.7l58.3-33.4l0.1-67.1   l-58.1-33.7l-58.2,33.4L-3116.9,3933.1z"/></g><g><polygon points="-3387.2,4012.3 -3321.5,3974.7 -3256,4012.8 -3256.1,4088.6 -3322,4126.3 -3387.5,4088.2  "/><path d="M-3322,4134.9l-73-42.4l0.3-84.5l73.2-42l73,42.4l-0.1,84.5L-3322,4134.9z M-3380,4083.9l58,33.7l58.3-33.4l0.1-67.1   l-58.1-33.7l-58.2,33.4L-3380,4083.9z"/></g><g><rect x="-3397.1" y="3891.4" transform="matrix(2.994790e-03 -1 1 2.994790e-03 -7210.187 565.9286)" width="151.6" height="15"/></g><g><rect x="-3265.1" y="3664.3" transform="matrix(0.8675 -0.4975 0.4975 0.8675 -2249.2659 -1099.9933)" width="151.6" height="15"/></g><g><rect x="-3197.2" y="3747.7" transform="matrix(0.5026 -0.8645 0.8645 0.5026 -4892.1621 -855.7278)" width="15" height="151.6"/></g><g><rect x="-3528.1" y="3815.2" transform="matrix(0.8675 -0.4975 0.4975 0.8675 -2359.1599 -1210.8584)" width="151.6" height="15"/></g><g><rect x="-3459.3" y="3595.2" transform="matrix(0.5031 -0.8642 0.8642 0.5031 -4887.5488 -1159.1334)" width="15" height="151.6"/></g><g><line x1="-3320.6" y1="3671.5" x2="-3320.1" y2="3519.8"/><rect x="-3396.2" y="3588.2" transform="matrix(2.994790e-03 -1 1 2.994790e-03 -6906.062 264.5323)" width="151.6" height="15"/></g><g><polygon points="-2206.8,3723.1 -2141.2,3685.2 -2075.5,3723 -2075.4,3798.7 -2141,3836.8 -2206.7,3799  "/><path d="M-2141,3845.4l-73.2-42.1l-0.1-84.5l73.1-42.3l73.2,42.1l0.2,84.4L-2141,3845.4z M-2199.2,3794.6l58.2,33.5l58.1-33.7   l-0.1-67.1l-58.2-33.5l-58.1,33.6L-2199.2,3794.6z"/></g><g><polygon points="-1943.6,3572 -1877.8,3534.3 -1812.3,3572.4 -1812.4,3648.2 -1878.3,3685.9 -1943.8,3647.9  "/><path d="M-1878.3,3694.6l-73-42.4l0.3-84.5l73.2-42l73,42.4l-0.1,84.5L-1878.3,3694.6z M-1936.3,3643.5l58,33.7l58.3-33.4l0.1-67.1   l-58.1-33.7l-58.2,33.4L-1936.3,3643.5z"/></g><g><polygon points="-2205.7,3419.6 -2140,3381.9 -2074.5,3420 -2074.6,3495.8 -2140.4,3533.5 -2206,3495.4  "/><path d="M-2140.5,3542.2l-73-42.4l0.3-84.5l73.2-42l73,42.4l-0.1,84.5L-2140.5,3542.2z M-2198.5,3491.1l58,33.7l58.3-33.4l0.1-67.1   l-58.1-33.7l-58.2,33.4L-2198.5,3491.1z"/></g><g><polygon points="-2468.7,3570.3 -2403,3532.6 -2337.5,3570.7 -2337.6,3646.5 -2403.5,3684.2 -2469,3646.1  "/><path d="M-2403.5,3692.9l-73-42.4l0.3-84.5l73.2-42l73,42.4l-0.1,84.5L-2403.5,3692.9z M-2461.5,3641.8l58,33.7l58.3-33.4l0.1-67.1   l-58.1-33.7l-58.2,33.4L-2461.5,3641.8z"/></g><g><polygon points="-2469.7,3873.7 -2403.9,3836 -2338.4,3874.1 -2338.5,3949.9 -2404.4,3987.6 -2469.9,3949.5  "/><path d="M-2404.4,3996.3l-73-42.4l0.3-84.5l73.2-42l73,42.4l-0.1,84.5L-2404.4,3996.3z M-2462.4,3945.2l58,33.7l58.3-33.4l0.1-67.1   l-58.1-33.7l-58.2,33.4L-2462.4,3945.2z"/></g><g><polygon points="-1944.4,3875.3 -1878.7,3837.6 -1813.2,3875.7 -1813.3,3951.5 -1879.1,3989.2 -1944.7,3951.1  "/><path d="M-1879.2,3997.9l-73-42.4l0.3-84.5l73.2-42l73,42.4l-0.1,84.5L-1879.2,3997.9z M-1937.2,3946.8l58,33.7l58.3-33.4l0.1-67.1   l-58.1-33.7l-58.2,33.4L-1937.2,3946.8z"/></g><g><polygon points="-2207.5,4026.1 -2141.8,3988.4 -2076.2,4026.5 -2076.4,4102.3 -2142.2,4140 -2207.8,4101.9  "/><path d="M-2142.3,4148.7l-73-42.4l0.3-84.5l73.2-42l73,42.4l-0.1,84.5L-2142.3,4148.7z M-2200.2,4097.6l58,33.7l58.3-33.4l0.1-67.1   l-58.1-33.7l-58.2,33.4L-2200.2,4097.6z"/></g><g><path d="M-2134.3,3988.4l-15,0l0.1-19.6l15,0L-2134.3,3988.4z M-2134.1,3946.8l-15,0l0.1-22l15,0L-2134.1,3946.8z M-2134,3902.8   l-15,0l0.1-22l15,0L-2134,3902.8z M-2133.9,3858.8l-15,0l0.1-22l15,0L-2133.9,3858.8z"/></g><g><path d="M-2071.6,3729.8l-7.5-13l19.1-10.9l7.5,13L-2071.6,3729.8z M-2033.4,3707.9l-7.5-13l19.1-10.9l7.5,13L-2033.4,3707.9z    M-1995.3,3686l-7.5-13l19.1-10.9l7.5,13L-1995.3,3686z M-1957.1,3664.1l-7.5-13l17-9.8l7.5,13L-1957.1,3664.1z"/></g><g><path d="M-1948.2,3881.8l-17-9.9l7.5-13l17,9.9L-1948.2,3881.8z M-1984.2,3860.9l-19-11.1l7.5-13l19,11.1L-1984.2,3860.9z    M-2022.2,3838.8l-19-11.1l7.5-13l19,11.1L-2022.2,3838.8z M-2060.3,3816.6l-19-11.1l7.5-13l19,11.1L-2060.3,3816.6z"/></g><g><path d="M-2334.6,3880.6l-7.5-13l17-9.8l7.5,13L-2334.6,3880.6z M-2298.5,3859.9l-7.5-13l19.1-10.9l7.5,13L-2298.5,3859.9z    M-2260.4,3838l-7.5-13l19.1-10.9l7.5,13L-2260.4,3838z M-2222.2,3816.1l-7.5-13l19.1-10.9l7.5,13L-2222.2,3816.1z"/></g><g><path d="M-2210.4,3729.3l-19-11.1l7.5-13l19,11.1L-2210.4,3729.3z M-2248.4,3707.2l-19-11.1l7.5-13l19,11.1L-2248.4,3707.2z    M-2286.4,3685l-19-11.1l7.5-13l19,11.1L-2286.4,3685z M-2324.4,3662.9l-16.9-9.9l7.5-13l16.9,9.9L-2324.4,3662.9z"/></g><g><line x1="-2140.9" y1="3685.2" x2="-2140.4" y2="3533.6"/><path d="M-2133.4,3685.2l-15,0l0.1-22l15,0L-2133.4,3685.2z M-2133.2,3641.2l-15,0l0.1-22l15,0L-2133.2,3641.2z M-2133.1,3597.2   l-15,0l0.1-22l15,0L-2133.1,3597.2z M-2133,3553.2l-15,0l0.1-19.6l15,0L-2133,3553.2z"/></g><g><path d="M375.1,6175.7l-73.2-42.1l-0.1-84.5l73.1-42.3l73.2,42.1l0.2,84.4L375.1,6175.7z M316.9,6124.9l58.2,33.5l58.1-33.7   l-0.1-67.1l-58.2-33.5l-58.1,33.6L316.9,6124.9z"/></g><g><path d="M637.8,6024.9l-73-42.4l0.3-84.5l73.2-42l73,42.4l-0.1,84.5L637.8,6024.9z M579.8,5973.8l58,33.7l58.3-33.4l0.1-67.1   l-58.1-33.7l-58.2,33.4L579.8,5973.8z"/></g><g><path d="M375.6,5872.5l-73-42.4l0.3-84.5l73.2-42l73,42.4l-0.1,84.5L375.6,5872.5z M317.6,5821.4l58,33.7l58.3-33.4l0.1-67.1   l-58.1-33.7l-58.2,33.4L317.6,5821.4z"/></g><g><path d="M112.6,6023.2l-73-42.4l0.3-84.5l73.2-42l73,42.4l-0.1,84.5L112.6,6023.2z M54.6,5972.1l58,33.7l58.3-33.4l0.1-67.1   l-58.1-33.7l-58.2,33.4L54.6,5972.1z"/></g><g><path d="M111.7,6326.5l-73-42.4l0.3-84.5l73.2-42l73,42.4l-0.1,84.5L111.7,6326.5z M53.7,6275.5l58,33.7l58.3-33.4l0.1-67.1   l-58.1-33.7l-58.2,33.4L53.7,6275.5z"/></g><g><path d="M636.9,6328.1l-73-42.4l0.3-84.5l73.2-42l73,42.4l-0.1,84.5L636.9,6328.1z M578.9,6277.1l58,33.7l58.3-33.4l0.1-67.1   l-58.1-33.7l-58.2,33.4L578.9,6277.1z"/></g><g><path d="M373.8,6478.9l-73-42.4l0.3-84.5l73.2-42l73,42.4l-0.1,84.5L373.8,6478.9z M315.8,6427.9l58,33.7l58.3-33.4l0.1-67.1   l-58.1-33.7l-58.2,33.4L315.8,6427.9z"/></g><g><rect x="298.7" y="6235.4" transform="matrix(2.994778e-03 -1 1 2.994778e-03 -5869.4312 6598.7158)" width="151.6" height="15"/></g><g><rect x="36.5" y="6082.9" transform="matrix(3.255191e-03 -1 1 3.255191e-03 -5978.3418 6182.9502)" width="151.8" height="15"/></g><g><rect x="235.6" y="6242.5" transform="matrix(0.5026 -0.8645 0.8645 0.5026 -5341.4463 3353.0049)" width="15" height="151.5"/></g><g><rect x="429.8" y="6311.6" transform="matrix(0.8677 -0.4972 0.4972 0.8677 -3074.7336 1087.6884)" width="151.6" height="15"/></g><g><rect x="236.4" y="5939.3" transform="matrix(0.5054 -0.8629 0.8629 0.5054 -5069.8696 3185.8293)" width="15" height="151.6"/></g><g><rect x="430.6" y="6008.2" transform="matrix(0.8686 -0.4955 0.4955 0.8686 -2914.2441 1041.3544)" width="151.6" height="15"/></g><g><rect x="561.8" y="6084.6" transform="matrix(2.734365e-03 -1 1 2.734365e-03 -5456.1724 6712.9927)" width="151.6" height="15"/></g><g><rect x="499.5" y="5788.4" transform="matrix(0.5026 -0.8645 0.8645 0.5026 -4817.606 3355.3425)" width="15" height="151.5"/></g><g><rect x="168.6" y="5855.9" transform="matrix(0.8679 -0.4968 0.4968 0.8679 -2880.5991 896.1331)" width="151.5" height="15"/></g><g><path d="M1673.5,6252.5l-73.2-42.1l-0.1-84.5l73.1-42.3l73.2,42.1l0.2,84.4L1673.5,6252.5z M1615.3,6201.7l58.2,33.5l58.1-33.7   l-0.1-67.1l-58.2-33.5l-58.1,33.6L1615.3,6201.7z"/></g><g><path d="M1936.1,6101.6l-73-42.4l0.3-84.5l73.2-42l73,42.4l-0.1,84.5L1936.1,6101.6z M1878.1,6050.6l58,33.7l58.3-33.4l0.1-67.1   l-58.1-33.7l-58.2,33.4L1878.1,6050.6z"/></g><g><path d="M1674,5949.2l-73-42.4l0.3-84.5l73.2-42l73,42.4l-0.1,84.5L1674,5949.2z M1616,5898.2l58,33.7l58.3-33.4l0.1-67.1   l-58.1-33.7l-58.2,33.4L1616,5898.2z"/></g><g><path d="M1411,6099.9l-73-42.4l0.3-84.5l73.2-42l73,42.4l-0.1,84.5L1411,6099.9z M1353,6048.9l58,33.7l58.3-33.4l0.1-67.1   l-58.1-33.7l-58.2,33.4L1353,6048.9z"/></g><g><path d="M1410,6403.3l-73-42.4l0.3-84.5l73.2-42l73,42.4l-0.1,84.5L1410,6403.3z M1352,6352.2l58,33.7l58.3-33.4l0.1-67.1   l-58.1-33.7l-58.2,33.4L1352,6352.2z"/></g><g><path d="M1935.3,6404.9l-73-42.4l0.3-84.5l73.2-42l73,42.4l-0.1,84.5L1935.3,6404.9z M1877.3,6353.8l58,33.7l58.3-33.4l0.1-67.1   l-58.1-33.7l-58.2,33.4L1877.3,6353.8z"/></g><g><path d="M1672.2,6555.7l-73-42.4l0.3-84.5l73.2-42l73,42.4l-0.1,84.5L1672.2,6555.7z M1614.2,6504.6l58,33.7l58.3-33.4l0.1-67.1   l-58.1-33.7l-58.2,33.4L1614.2,6504.6z"/></g><g><path d="M1680.2,6395.4l-15,0l0.1-19.6l15,0L1680.2,6395.4z M1680.3,6353.8l-15,0l0.1-22l15,0L1680.3,6353.8z M1680.4,6309.8l-15,0   l0.1-22l15,0L1680.4,6309.8z M1680.6,6265.8l-15,0l0.1-22l15,0L1680.6,6265.8z"/></g><g><rect x="1334.9" y="6159.6" transform="matrix(3.255191e-03 -1 1 3.255191e-03 -4760.958 7557.79)" width="151.8" height="15"/></g><g><rect x="1533.9" y="6319.2" transform="matrix(0.5026 -0.8645 0.8645 0.5026 -4761.96 4513.6499)" width="15" height="151.5"/></g><g><rect x="1728.2" y="6388.3" transform="matrix(0.8677 -0.4972 0.4972 0.8677 -2941.0557 1743.3462)" width="151.6" height="15"/></g><g><path d="M1603.9,6136.6l-16.9-9.9l7.6-12.9l16.9,9.9L1603.9,6136.6z M1568,6115.6l-19-11.1l7.6-12.9l19,11.1L1568,6115.6z    M1530,6093.4l-19-11.1l7.6-12.9l19,11.1L1530,6093.4z M1492,6071.1l-19-11.1l7.6-12.9l19,11.1L1492,6071.1z"/></g><g><path d="M1742.7,6136.5l-7.4-13l17-9.7l7.4,13L1742.7,6136.5z M1778.8,6115.9l-7.4-13l19.1-10.9l7.4,13L1778.8,6115.9z    M1817,6094.1l-7.4-13l19.1-10.9l7.4,13L1817,6094.1z M1855.2,6072.3l-7.4-13l19.1-10.9l7.4,13L1855.2,6072.3z"/></g><g><rect x="1860.1" y="6161.3" transform="matrix(2.734365e-03 -1 1 2.734365e-03 -4238.1118 8087.8745)" width="151.6" height="15"/></g><g><rect x="1797.9" y="5865.2" transform="matrix(0.5026 -0.8645 0.8645 0.5026 -4238.1187 4515.9873)" width="15" height="151.5"/></g><g><rect x="1467" y="5932.6" transform="matrix(0.8679 -0.4968 0.4968 0.8679 -2747.0474 1551.1667)" width="151.5" height="15"/></g><g><path d="M2766.7,6194.3l-73.2-42.1l-0.1-84.5l73.1-42.3l73.2,42.1l0.2,84.4L2766.7,6194.3z M2708.5,6143.5l58.2,33.5l58.1-33.7   l-0.1-67.1l-58.2-33.5l-58.1,33.6L2708.5,6143.5z"/></g><g><path d="M3029.3,6043.5l-73-42.4l0.3-84.5l73.2-42l73,42.4l-0.1,84.5L3029.3,6043.5z M2971.3,5992.5l58,33.7l58.3-33.4l0.1-67.1   l-58.1-33.7l-58.2,33.4L2971.3,5992.5z"/></g><g><path d="M2767.2,5891.1l-73-42.4l0.3-84.5l73.2-42l73,42.4l-0.1,84.5L2767.2,5891.1z M2709.2,5840l58,33.7l58.3-33.4l0.1-67.1   l-58.1-33.7l-58.2,33.4L2709.2,5840z"/></g><g><path d="M2504.2,6041.8l-73-42.4l0.3-84.5l73.2-42l73,42.4l-0.1,84.5L2504.2,6041.8z M2446.2,5990.7l58,33.7l58.3-33.4l0.1-67.1   l-58.1-33.7l-58.2,33.4L2446.2,5990.7z"/></g><g><path d="M2503.2,6345.2l-73-42.4l0.3-84.5l73.2-42l73,42.4l-0.1,84.5L2503.2,6345.2z M2445.2,6294.1l58,33.7l58.3-33.4l0.1-67.1   l-58.1-33.7l-58.2,33.4L2445.2,6294.1z"/></g><g><path d="M3028.5,6346.8l-73-42.4l0.3-84.5l73.2-42l73,42.4l-0.1,84.5L3028.5,6346.8z M2970.5,6295.7l58,33.7l58.3-33.4l0.1-67.1   l-58.1-33.7l-58.2,33.4L2970.5,6295.7z"/></g><g><path d="M2765.4,6497.6l-73-42.4l0.3-84.5l73.2-42l73,42.4l-0.1,84.5L2765.4,6497.6z M2707.4,6446.5l58,33.7l58.3-33.4l0.1-67.1   l-58.1-33.7l-58.2,33.4L2707.4,6446.5z"/></g><g><path d="M2773.4,6337.3l-15,0l0.1-19.6l15,0L2773.4,6337.3z M2773.5,6295.7l-15,0l0.1-22l15,0L2773.5,6295.7z M2773.6,6251.7l-15,0   l0.1-22l15,0L2773.6,6251.7z M2773.8,6207.7l-15,0l0.1-22l15,0L2773.8,6207.7z"/></g><g><path d="M2511.2,6184.9l-15,0l0.1-19.8l15,0L2511.2,6184.9z M2511.3,6143.2l-15,0l0.1-22l15,0L2511.3,6143.2z M2511.5,6099.2l-15,0   l0.1-22l15,0L2511.5,6099.2z M2511.6,6055.2l-15,0l0.1-22l15,0L2511.6,6055.2z"/></g><g><path d="M2696.4,6381.4l-16.9-9.8l7.5-13l16.9,9.8L2696.4,6381.4z M2660.4,6360.6l-19-11.1l7.5-13l19,11.1L2660.4,6360.6z    M2622.4,6338.5l-19-11.1l7.5-13l19,11.1L2622.4,6338.5z M2584.4,6316.3l-19-11.1l7.5-13l19,11.1L2584.4,6316.3z"/></g><g><path d="M2835.1,6381.9l-7.5-13l19.1-10.9l7.5,13L2835.1,6381.9z M2873.3,6360l-7.5-13l19.1-10.9l7.5,13L2873.3,6360z    M2911.5,6338.1l-7.5-13l19.1-10.9l7.5,13L2911.5,6338.1z M2949.7,6316.3l-7.5-13l17-9.8l7.5,13L2949.7,6316.3z"/></g><g><path d="M2697.1,6078.5l-16.9-9.9l7.6-12.9l16.9,9.9L2697.1,6078.5z M2661.2,6057.5l-19-11.1l7.6-12.9l19,11.1L2661.2,6057.5z    M2623.2,6035.3l-19-11.1l7.6-12.9l19,11.1L2623.2,6035.3z M2585.2,6013l-19-11.1l7.6-12.9l19,11.1L2585.2,6013z"/></g><g><path d="M2835.9,6078.4l-7.4-13l17-9.7l7.4,13L2835.9,6078.4z M2872,6057.8l-7.4-13l19.1-10.9l7.4,13L2872,6057.8z M2910.2,6036   l-7.4-13l19.1-10.9l7.4,13L2910.2,6036z M2948.4,6014.2l-7.4-13l19.1-10.9l7.4,13L2948.4,6014.2z"/></g><g><path d="M3036.4,6186.5l-15,0l0.1-22l15,0L3036.4,6186.5z M3036.6,6142.5l-15,0l0.1-22l15,0L3036.6,6142.5z M3036.7,6098.5l-15,0   l0.1-22l15,0L3036.7,6098.5z M3036.8,6054.5l-15,0l0.1-19.6l15,0L3036.8,6054.5z"/></g><g><path d="M2960.3,5927.4l-19-11.1l7.5-13l19,11.1L2960.3,5927.4z M2922.3,5905.3l-19-11.1l7.5-13l19,11.1L2922.3,5905.3z    M2884.2,5883.2l-19-11.1l7.5-13l19,11.1L2884.2,5883.2z M2846.2,5861.1l-16.9-9.8l7.5-13l16.9,9.8L2846.2,5861.1z"/></g><g><path d="M2573.9,5926.1l-7.5-13l16.9-9.7l7.5,13L2573.9,5926.1z M2609.9,5905.5l-7.5-13l19.1-10.9l7.5,13L2609.9,5905.5z    M2648.1,5883.6l-7.5-13l19.1-10.9l7.5,13L2648.1,5883.6z M2686.3,5861.8l-7.5-13l19.1-10.9l7.5,13L2686.3,5861.8z"/></g><g><path d="M443.1,5154.2l-73.2-42.1l-0.1-84.5l73.1-42.3l73.2,42.1l0.2,84.4L443.1,5154.2z M384.9,5103.4l58.2,33.5l58.1-33.7   l-0.1-67.1l-58.2-33.5l-58.1,33.6L384.9,5103.4z"/></g><g><path d="M705.8,5003.4l-73-42.4l0.3-84.5l73.2-42l73,42.4l-0.1,84.5L705.8,5003.4z M647.8,4952.3l58,33.7l58.3-33.4l0.1-67.1   l-58.1-33.7l-58.2,33.4L647.8,4952.3z"/></g><g><path d="M443.6,4851l-73-42.4l0.3-84.5l73.2-42l73,42.4L517,4809L443.6,4851z M385.6,4799.9l58,33.7l58.3-33.4l0.1-67.1l-58.1-33.7   l-58.2,33.4L385.6,4799.9z"/></g><g><path d="M180.6,5001.6l-73-42.4l0.3-84.5l73.2-42l73,42.4l-0.1,84.5L180.6,5001.6z M122.6,4950.6l58,33.7l58.3-33.4l0.1-67.1   L181,4850l-58.2,33.4L122.6,4950.6z"/></g><g><path d="M179.6,5305l-73-42.4l0.3-84.5l73.2-42l73,42.4L253,5263L179.6,5305z M121.6,5254l58,33.7l58.3-33.4l0.1-67.1l-58.1-33.7   l-58.2,33.4L121.6,5254z"/></g><g><path d="M704.9,5306.6l-73-42.4l0.3-84.5l73.2-42l73,42.4l-0.1,84.5L704.9,5306.6z M646.9,5255.5l58,33.7l58.3-33.4l0.1-67.1   l-58.1-33.7l-58.2,33.4L646.9,5255.5z"/></g><g><path d="M441.8,5457.4l-73-42.4l0.3-84.5l73.2-42l73,42.4l-0.1,84.5L441.8,5457.4z M383.8,5406.4l58,33.7l58.3-33.4l0.1-67.1   l-58.1-33.7l-58.2,33.4L383.8,5406.4z"/></g><g><rect x="366.7" y="5213.8" transform="matrix(2.994778e-03 -1 1 2.994778e-03 -4780.1357 5648.2197)" width="151.6" height="15"/></g><g><rect x="104.5" y="5061.4" transform="matrix(3.255191e-03 -1 1 3.255191e-03 -4889.0654 5232.7202)" width="151.8" height="15"/></g><g><rect x="303.5" y="5221" transform="matrix(0.5026 -0.8645 0.8645 0.5026 -4424.4883 2903.6362)" width="15" height="151.5"/></g><g><rect x="497.8" y="5290" transform="matrix(0.8677 -0.4972 0.4972 0.8677 -2557.8647 986.2874)" width="151.6" height="15"/></g><g><rect x="304.4" y="4917.8" transform="matrix(0.5054 -0.8629 0.8629 0.5054 -4154.7559 2739.1887)" width="15" height="151.6"/></g><g><rect x="498.6" y="4986.7" transform="matrix(0.8686 -0.4955 0.4955 0.8686 -2399.1443 940.8144)" width="151.6" height="15"/></g><g><rect x="629.8" y="5063" transform="matrix(2.734365e-03 -1 1 2.734365e-03 -4366.8584 5762.2305)" width="151.6" height="15"/></g><g><rect x="567.5" y="4766.9" transform="matrix(0.5026 -0.8645 0.8645 0.5026 -3900.647 2905.9734)" width="15" height="151.5"/></g><g><rect x="236.6" y="4834.3" transform="matrix(0.8679 -0.4968 0.4968 0.8679 -2364.0134 794.8502)" width="151.5" height="15"/></g><g><rect x="235.7" y="5137.8" transform="matrix(0.8688 -0.4952 0.4952 0.8688 -2507.3105 829.587)" width="151.6" height="15"/></g><g><rect x="367.4" y="4910.6" transform="matrix(4.947856e-03 -1 1 4.947856e-03 -4477.0156 5337.0107)" width="151.6" height="15"/></g><g><rect x="566.7" y="5069.9" transform="matrix(0.5045 -0.8634 0.8634 0.5045 -4158.4106 3045.4768)" width="15" height="151.7"/></g><g><path d="M1704,5077.5l-73.2-42.1l-0.1-84.5l73.1-42.3l73.2,42.1l0.2,84.4L1704,5077.5z M1645.8,5026.7l58.2,33.5l58.1-33.7   l-0.1-67.1l-58.2-33.5l-58.1,33.6L1645.8,5026.7z"/></g><g><path d="M1966.6,4926.6l-73-42.4l0.3-84.5l73.2-42l73,42.4l-0.1,84.5L1966.6,4926.6z M1908.6,4875.6l58,33.7l58.3-33.4l0.1-67.1   l-58.1-33.7l-58.2,33.4L1908.6,4875.6z"/></g><g><path d="M1704.5,4774.2l-73-42.4l0.3-84.5l73.2-42l73,42.4l-0.1,84.5L1704.5,4774.2z M1646.5,4723.2l58,33.7l58.3-33.4l0.1-67.1   l-58.1-33.7l-58.2,33.4L1646.5,4723.2z"/></g><g><path d="M1441.5,4924.9l-73-42.4l0.3-84.5l73.2-42l73,42.4l-0.1,84.5L1441.5,4924.9z M1383.5,4873.8l58,33.7l58.3-33.4l0.1-67.1   l-58.1-33.7l-58.2,33.4L1383.5,4873.8z"/></g><g><path d="M1440.5,5228.3l-73-42.4l0.3-84.5l73.2-42l73,42.4l-0.1,84.5L1440.5,5228.3z M1382.5,5177.2l58,33.7l58.3-33.4l0.1-67.1   l-58.1-33.7l-58.2,33.4L1382.5,5177.2z"/></g><g><path d="M1965.8,5229.9l-73-42.4l0.3-84.5l73.2-42l73,42.4l-0.1,84.5L1965.8,5229.9z M1907.8,5178.8l58,33.7l58.3-33.4l0.1-67.1   l-58.1-33.7l-58.2,33.4L1907.8,5178.8z"/></g><g><path d="M1702.7,5380.7l-73-42.4l0.3-84.5l73.2-42l73,42.4l-0.1,84.5L1702.7,5380.7z M1644.7,5329.6l58,33.7l58.3-33.4l0.1-67.1   l-58.1-33.7l-58.2,33.4L1644.7,5329.6z"/></g><g><path d="M1710.7,5220.4l-15,0l0.1-19.6l15,0L1710.7,5220.4z M1710.8,5178.8l-15,0l0.1-22l15,0L1710.8,5178.8z M1710.9,5134.8l-15,0   l0.1-22l15,0L1710.9,5134.8z M1711.1,5090.8l-15,0l0.1-22l15,0L1711.1,5090.8z"/></g><g><rect x="1365.4" y="4984.6" transform="matrix(3.255191e-03 -1 1 3.255191e-03 -3555.5479 6417.0986)" width="151.8" height="15"/></g><g><rect x="1564.4" y="5144.2" transform="matrix(0.5026 -0.8645 0.8645 0.5026 -3730.9465 3955.5347)" width="15" height="151.5"/></g><g><rect x="1758.7" y="5213.3" transform="matrix(0.8677 -0.4972 0.4972 0.8677 -2352.8376 1603.0007)" width="151.6" height="15"/></g><g><path d="M1634.4,4961.6l-16.9-9.9l7.6-12.9l16.9,9.9L1634.4,4961.6z M1598.5,4940.6l-19-11.1l7.6-12.9l19,11.1L1598.5,4940.6z    M1560.5,4918.4l-19-11.1l7.6-12.9l19,11.1L1560.5,4918.4z M1522.5,4896.1l-19-11.1l7.6-12.9l19,11.1L1522.5,4896.1z"/></g><g><path d="M1773.2,4961.5l-7.4-13l17-9.7l7.4,13L1773.2,4961.5z M1809.3,4940.9l-7.4-13l19.1-10.9l7.4,13L1809.3,4940.9z    M1847.5,4919.1l-7.4-13l19.1-10.9l7.4,13L1847.5,4919.1z M1885.7,4897.3l-7.4-13l19.1-10.9l7.4,13L1885.7,4897.3z"/></g><g><rect x="1890.6" y="4986.3" transform="matrix(2.734365e-03 -1 1 2.734365e-03 -3032.6841 6946.5718)" width="151.6" height="15"/></g><g><rect x="1828.4" y="4690.2" transform="matrix(0.5026 -0.8645 0.8645 0.5026 -3207.106 3957.8723)" width="15" height="151.5"/></g><g><rect x="1497.5" y="4757.6" transform="matrix(0.8679 -0.4968 0.4968 0.8679 -2159.3999 1411.1831)" width="151.5" height="15"/></g><g><path d="M1510.2,5112.6l-7.4-13l19.1-10.9l7.4,13L1510.2,5112.6z M1548.5,5090.8l-7.4-13l19.1-10.9l7.4,13L1548.5,5090.8z    M1586.7,5069l-7.4-13l19.1-10.9l7.4,13L1586.7,5069z M1624.9,5047.2l-7.4-13l17.1-9.7l7.4,13L1624.9,5047.2z"/></g><g><path d="M1711.2,4917.2l-15-0.1l0.1-22l15,0.1L1711.2,4917.2z M1711.5,4873.2l-15-0.1l0.1-22l15,0.1L1711.5,4873.2z M1711.7,4829.2   l-15-0.1l0.1-22l15,0.1L1711.7,4829.2z M1711.9,4785.2l-15-0.1l0.1-19.6l15,0.1L1711.9,4785.2z"/></g><g><path d="M1896.7,5113.7l-17-9.9l7.6-13l17,9.9L1896.7,5113.7z M1860.8,5092.7l-19-11.1l7.6-13l19,11.1L1860.8,5092.7z    M1822.8,5070.5l-19-11.1l7.6-13l19,11.1L1822.8,5070.5z M1784.8,5048.3l-19-11.1l7.6-13l19,11.1L1784.8,5048.3z"/></g><g><path d="M2794.6,5079.2l-73.2-42.1l-0.1-84.5l73.1-42.3l73.2,42.1l0.2,84.4L2794.6,5079.2z M2736.4,5028.4l58.2,33.5l58.1-33.7   l-0.1-67.1l-58.2-33.5l-58.1,33.6L2736.4,5028.4z"/></g><g><path d="M3057.3,4928.3l-73-42.4l0.3-84.5l73.2-42l73,42.4l-0.1,84.5L3057.3,4928.3z M2999.3,4877.3l58,33.7l58.3-33.4l0.1-67.1   l-58.1-33.7l-58.2,33.4L2999.3,4877.3z"/></g><g><path d="M2795.1,4775.9l-73-42.4l0.3-84.5l73.2-42l73,42.4l-0.1,84.5L2795.1,4775.9z M2737.1,4724.9l58,33.7l58.3-33.4l0.1-67.1   l-58.1-33.7l-58.2,33.4L2737.1,4724.9z"/></g><g><path d="M2532.1,4926.6l-73-42.4l0.3-84.5l73.2-42l73,42.4l-0.1,84.5L2532.1,4926.6z M2474.1,4875.6l58,33.7l58.3-33.4l0.1-67.1   l-58.1-33.7l-58.2,33.4L2474.1,4875.6z"/></g><g><path d="M2531.1,5230l-73-42.4l0.3-84.5l73.2-42l73,42.4l-0.1,84.5L2531.1,5230z M2473.2,5178.9l58,33.7l58.3-33.4l0.1-67.1   l-58.1-33.7l-58.2,33.4L2473.2,5178.9z"/></g><g><path d="M3056.4,5231.6l-73-42.4l0.3-84.5l73.2-42l73,42.4l-0.1,84.5L3056.4,5231.6z M2998.4,5180.5l58,33.7l58.3-33.4l0.1-67.1   l-58.1-33.7l-58.2,33.4L2998.4,5180.5z"/></g><g><path d="M2793.3,5382.4l-73-42.4l0.3-84.5l73.2-42l73,42.4l-0.1,84.5L2793.3,5382.4z M2735.3,5331.3l58,33.7l58.3-33.4l0.1-67.1   l-58.1-33.7l-58.2,33.4L2735.3,5331.3z"/></g><g><path d="M2801.3,5222.2l-15,0l0.1-19.6l15,0L2801.3,5222.2z M2801.4,5180.5l-15,0l0.1-22l15,0L2801.4,5180.5z M2801.6,5136.5l-15,0   l0.1-22l15,0L2801.6,5136.5z M2801.7,5092.5l-15,0l0.1-22l15,0L2801.7,5092.5z"/></g><g><path d="M2539.1,5069.7l-15,0l0.1-19.8l15,0L2539.1,5069.7z M2539.3,5028l-15,0l0.1-22l15,0L2539.3,5028z M2539.4,4984l-15,0   l0.1-22l15,0L2539.4,4984z M2539.6,4940l-15,0l0.1-22l15,0L2539.6,4940z"/></g><g><path d="M2724.3,5266.3l-16.9-9.8l7.5-13l16.9,9.8L2724.3,5266.3z M2688.4,5245.4l-19-11.1l7.5-13l19,11.1L2688.4,5245.4z    M2650.3,5223.3l-19-11.1l7.5-13l19,11.1L2650.3,5223.3z M2612.3,5201.2l-19-11.1l7.5-13l19,11.1L2612.3,5201.2z"/></g><g><path d="M2863.1,5266.7l-7.5-13l19.1-10.9l7.5,13L2863.1,5266.7z M2901.2,5244.9l-7.5-13l19.1-10.9l7.5,13L2901.2,5244.9z    M2939.4,5223l-7.5-13l19.1-10.9l7.5,13L2939.4,5223z M2977.6,5201.1l-7.5-13l17-9.8l7.5,13L2977.6,5201.1z"/></g><g><path d="M2725,4963.3l-16.9-9.9l7.6-12.9l16.9,9.9L2725,4963.3z M2689.1,4942.3l-19-11.1l7.6-12.9l19,11.1L2689.1,4942.3z    M2651.2,4920.1l-19-11.1l7.6-12.9l19,11.1L2651.2,4920.1z M2613.2,4897.8l-19-11.1l7.6-12.9l19,11.1L2613.2,4897.8z"/></g><g><path d="M2863.8,4963.2l-7.4-13l17-9.7l7.4,13L2863.8,4963.2z M2899.9,4942.6l-7.4-13l19.1-10.9l7.4,13L2899.9,4942.6z    M2938.2,4920.8l-7.4-13l19.1-10.9l7.4,13L2938.2,4920.8z M2976.4,4899l-7.4-13l19.1-10.9l7.4,13L2976.4,4899z"/></g><g><path d="M3064.4,5071.3l-15,0l0.1-22l15,0L3064.4,5071.3z M3064.5,5027.3l-15,0l0.1-22l15,0L3064.5,5027.3z M3064.6,4983.3l-15,0   l0.1-22l15,0L3064.6,4983.3z M3064.7,4939.3l-15,0l0.1-19.6l15,0L3064.7,4939.3z"/></g><g><path d="M2988.3,4812.2l-19-11.1l7.5-13l19,11.1L2988.3,4812.2z M2950.2,4790.1l-19-11.1l7.5-13l19,11.1L2950.2,4790.1z    M2912.2,4768l-19-11.1l7.5-13l19,11.1L2912.2,4768z M2874.1,4745.9l-16.9-9.8l7.5-13l16.9,9.8L2874.1,4745.9z"/></g><g><path d="M2601.8,4811l-7.5-13l16.9-9.7l7.5,13L2601.8,4811z M2637.9,4790.3l-7.5-13l19.1-10.9l7.5,13L2637.9,4790.3z M2676,4768.5   l-7.5-13l19.1-10.9l7.5,13L2676,4768.5z M2714.2,4746.6l-7.5-13l19.1-10.9l7.5,13L2714.2,4746.6z"/></g><g><path d="M2600.9,5114.3l-7.4-13l19.1-10.9l7.4,13L2600.9,5114.3z M2639.1,5092.5l-7.4-13l19.1-10.9l7.4,13L2639.1,5092.5z    M2677.3,5070.8l-7.4-13l19.1-10.9l7.4,13L2677.3,5070.8z M2715.6,5049l-7.4-13l17.1-9.7l7.4,13L2715.6,5049z"/></g><g><path d="M2801.9,4919l-15-0.1l0.1-22l15,0.1L2801.9,4919z M2802.1,4875l-15-0.1l0.1-22l15,0.1L2802.1,4875z M2802.3,4831l-15-0.1   l0.1-22l15,0.1L2802.3,4831z M2802.5,4787l-15-0.1l0.1-19.6l15,0.1L2802.5,4787z"/></g><g><path d="M2987.4,5115.5l-17-9.9l7.6-13l17,9.9L2987.4,5115.5z M2951.4,5094.4l-19-11.1l7.6-13l19,11.1L2951.4,5094.4z    M2913.4,5072.2l-19-11.1l7.6-13l19,11.1L2913.4,5072.2z M2875.4,5050.1l-19-11.1l7.6-13l19,11.1L2875.4,5050.1z"/></g><g><polygon points="-3368.2,5996.4 -3302.6,5958.4 -3236.9,5996.2 -3236.8,6072 -3302.4,6110 -3368.1,6072.2  "/><path d="M-3302.4,6118.7l-73.2-42.1l-0.1-84.5l73.1-42.3l73.2,42.1l0.2,84.4L-3302.4,6118.7z M-3360.6,6067.9l58.2,33.5l58.1-33.7   l-0.1-67.1l-58.2-33.5l-58.1,33.6L-3360.6,6067.9z"/></g><g><polygon points="-3105,5845.3 -3039.3,5807.6 -2973.7,5845.7 -2973.8,5921.5 -3039.7,5959.2 -3105.2,5921.1  "/><path d="M-3039.7,5967.9l-73-42.4l0.3-84.5l73.2-42l73,42.4l-0.1,84.5L-3039.7,5967.9z M-3097.7,5916.8l58,33.7l58.3-33.4l0.1-67.1   l-58.1-33.7l-58.2,33.4L-3097.7,5916.8z"/></g><g><polygon points="-3367.2,5692.9 -3301.4,5655.2 -3235.9,5693.3 -3236,5769.1 -3301.9,5806.8 -3367.4,5768.7  "/><path d="M-3301.9,5815.5l-73-42.4l0.3-84.5l73.2-42l73,42.4l-0.1,84.5L-3301.9,5815.5z M-3359.9,5764.4l58,33.7l58.3-33.4l0.1-67.1   l-58.1-33.7l-58.2,33.4L-3359.9,5764.4z"/></g><g><polygon points="-3630.2,5843.5 -3564.4,5805.9 -3498.9,5844 -3499,5919.8 -3564.9,5957.5 -3630.4,5919.4  "/><path d="M-3564.9,5966.1l-73-42.4l0.3-84.5l73.2-42l73,42.4l-0.1,84.5L-3564.9,5966.1z M-3622.9,5915.1l58,33.7l58.3-33.4l0.1-67.1   l-58.1-33.7l-58.2,33.4L-3622.9,5915.1z"/></g><g><polygon points="-3631.1,6146.9 -3565.4,6109.3 -3499.9,6147.3 -3500,6223.2 -3565.8,6260.9 -3631.4,6222.8  "/><path d="M-3565.9,6269.5l-73-42.4l0.3-84.5l73.2-42l73,42.4l-0.1,84.5L-3565.9,6269.5z M-3623.9,6218.5l58,33.7l58.3-33.4l0.1-67.1   l-58.1-33.7l-58.2,33.4L-3623.9,6218.5z"/></g><g><polygon points="-3105.9,6148.5 -3040.1,6110.8 -2974.6,6148.9 -2974.7,6224.8 -3040.6,6262.5 -3106.1,6224.4  "/><path d="M-3040.6,6271.1l-73-42.4l0.3-84.5l73.2-42l73,42.4l-0.1,84.5L-3040.6,6271.1z M-3098.6,6220.1l58,33.7l58.3-33.4l0.1-67.1   l-58.1-33.7l-58.2,33.4L-3098.6,6220.1z"/></g><g><polygon points="-3368.9,6299.3 -3303.2,6261.7 -3237.7,6299.8 -3237.8,6375.6 -3303.7,6413.3 -3369.2,6375.2  "/><path d="M-3303.7,6421.9l-73-42.4l0.3-84.5l73.2-42l73,42.4l-0.1,84.5L-3303.7,6421.9z M-3361.7,6370.9l58,33.7l58.3-33.4l0.1-67.1   l-58.1-33.7l-58.2,33.4L-3361.7,6370.9z"/></g><g><rect x="-3378.8" y="6178.4" transform="matrix(2.994803e-03 -1 1 2.994803e-03 -9478.918 2864.3577)" width="151.6" height="15"/></g><g><rect x="-3641" y="6025.9" transform="matrix(3.255204e-03 -1 1 3.255204e-03 -9586.8711 2448.6106)" width="151.8" height="15"/></g><g><rect x="-3442" y="6185.5" transform="matrix(0.5026 -0.8645 0.8645 0.5026 -7121.4453 145.298)" width="15" height="151.5"/></g><g><rect x="-3247.7" y="6254.6" transform="matrix(0.8677 -0.4972 0.4972 0.8677 -3532.967 -748.2156)" width="151.6" height="15"/></g><g><rect x="-3441.1" y="5882.3" transform="matrix(0.5054 -0.8629 0.8629 0.5054 -6839.7314 -15.7614)" width="15" height="151.6"/></g><g><rect x="-3246.9" y="5951.2" transform="matrix(0.8686 -0.4955 0.4955 0.8686 -3369.2361 -788.3519)" width="151.6" height="15"/></g><g><rect x="-3115.7" y="6027.5" transform="matrix(2.734365e-03 -1 1 2.734365e-03 -9066.6172 2978.6174)" width="151.6" height="15"/></g><g><rect x="-3178" y="5731.4" transform="matrix(0.5026 -0.8645 0.8645 0.5026 -6597.6064 147.6366)" width="15" height="151.6"/></g><g><rect x="-3508.9" y="5798.8" transform="matrix(0.8679 -0.4968 0.4968 0.8679 -3338.1406 -938.3732)" width="151.5" height="15"/></g><g><polygon points="-2069.9,6073.1 -2004.3,6035.2 -1938.6,6073 -1938.4,6148.7 -2004.1,6186.8 -2069.8,6149  "/><path d="M-2004.1,6195.5l-73.2-42.1l-0.1-84.5l73.1-42.3l73.2,42.1l0.2,84.4L-2004.1,6195.5z M-2062.3,6144.6l58.2,33.5l58.1-33.7   l-0.1-67.1l-58.2-33.5l-58.1,33.6L-2062.3,6144.6z"/></g><g><polygon points="-1806.6,5922 -1740.9,5884.3 -1675.4,5922.4 -1675.5,5998.3 -1741.4,6036 -1806.9,5997.9  "/><path d="M-1741.4,6044.6l-73-42.4l0.3-84.5l73.2-42l73,42.4l-0.1,84.5L-1741.4,6044.6z M-1799.4,5993.6l58,33.7l58.3-33.4l0.1-67.1   l-58.1-33.7l-58.2,33.4L-1799.4,5993.6z"/></g><g><polygon points="-2068.8,5769.6 -2003.1,5731.9 -1937.5,5770 -1937.7,5845.8 -2003.5,5883.6 -2069.1,5845.5  "/><path d="M-2003.6,5892.2l-73-42.4l0.3-84.5l73.2-42l73,42.4l-0.1,84.5L-2003.6,5892.2z M-2061.6,5841.1l58,33.7l58.3-33.4l0.1-67.1   l-58.1-33.7l-58.2,33.4L-2061.6,5841.1z"/></g><g><polygon points="-2331.8,5920.3 -2266.1,5882.6 -2200.6,5920.7 -2200.7,5996.5 -2266.5,6034.2 -2332.1,5996.1  "/><path d="M-2266.6,6042.9l-73-42.4l0.3-84.5l73.2-42l73,42.4l-0.1,84.5L-2266.6,6042.9z M-2324.6,5991.8l58,33.7l58.3-33.4l0.1-67.1   l-58.1-33.7l-58.2,33.4L-2324.6,5991.8z"/></g><g><polygon points="-2332.8,6223.7 -2267,6186 -2201.5,6224.1 -2201.6,6299.9 -2267.5,6337.6 -2333,6299.5  "/><path d="M-2267.5,6346.3l-73-42.4l0.3-84.5l73.2-42l73,42.4l-0.1,84.5L-2267.5,6346.3z M-2325.5,6295.2l58,33.7l58.3-33.4l0.1-67.1   l-58.1-33.7l-58.2,33.4L-2325.5,6295.2z"/></g><g><polygon points="-1807.5,6225.3 -1741.8,6187.6 -1676.2,6225.7 -1676.4,6301.5 -1742.2,6339.2 -1807.8,6301.1  "/><path d="M-1742.3,6347.9l-73-42.4l0.3-84.5l73.2-42l73,42.4l-0.1,84.5L-1742.3,6347.9z M-1800.2,6296.8l58,33.7l58.3-33.4l0.1-67.1   l-58.1-33.7l-58.2,33.4L-1800.2,6296.8z"/></g><g><polygon points="-2070.6,6376.1 -2004.9,6338.4 -1939.3,6376.5 -1939.4,6452.3 -2005.3,6490 -2070.8,6451.9  "/><path d="M-2005.3,6498.7l-73-42.4l0.3-84.5l73.2-42l73,42.4l-0.1,84.5L-2005.3,6498.7z M-2063.3,6447.6l58,33.7l58.3-33.4l0.1-67.1   l-58.1-33.7l-58.2,33.4L-2063.3,6447.6z"/></g><g><path d="M-1997.4,6338.4l-15,0l0.1-19.6l15,0L-1997.4,6338.4z M-1997.2,6296.8l-15,0l0.1-22l15,0L-1997.2,6296.8z M-1997.1,6252.8   l-15,0l0.1-22l15,0L-1997.1,6252.8z M-1997,6208.8l-15,0l0.1-22l15,0L-1997,6208.8z"/></g><g><rect x="-2342.7" y="6102.6" transform="matrix(3.255191e-03 -1 1 3.255191e-03 -8369.4873 3823.4502)" width="151.8" height="15"/></g><g><rect x="-2143.6" y="6262.2" transform="matrix(0.5026 -0.8645 0.8645 0.5026 -6541.959 1305.9437)" width="15" height="151.5"/></g><g><rect x="-1949.4" y="6331.3" transform="matrix(0.8677 -0.4972 0.4972 0.8677 -3399.4395 -92.5451)" width="151.6" height="15"/></g><g><path d="M-2073.6,6079.6l-16.9-9.9l7.6-12.9l16.9,9.9L-2073.6,6079.6z M-2109.5,6058.6l-19-11.1l7.6-12.9l19,11.1L-2109.5,6058.6z    M-2147.5,6036.4l-19-11.1l7.6-12.9l19,11.1L-2147.5,6036.4z M-2185.5,6014.1l-19-11.1l7.6-12.9l19,11.1L-2185.5,6014.1z"/></g><g><path d="M-1934.9,6079.5l-7.4-13l17-9.7l7.4,13L-1934.9,6079.5z M-1898.7,6058.9l-7.4-13l19.1-10.9l7.4,13L-1898.7,6058.9z    M-1860.5,6037.1l-7.4-13l19.1-10.9l7.4,13L-1860.5,6037.1z M-1822.3,6015.3l-7.4-13l19.1-10.9l7.4,13L-1822.3,6015.3z"/></g><g><rect x="-1817.4" y="6104.3" transform="matrix(2.734365e-03 -1 1 2.734365e-03 -7848.5576 4353.5)" width="151.6" height="15"/></g><g><rect x="-1879.7" y="5808.2" transform="matrix(0.5026 -0.8645 0.8645 0.5026 -6018.1157 1308.2791)" width="15" height="151.5"/></g><g><rect x="-2210.6" y="5875.6" transform="matrix(0.8679 -0.4968 0.4968 0.8679 -3204.7605 -283.219)" width="151.5" height="15"/></g><g><polygon points="-976.7,6015 -911.1,5977.1 -845.4,6014.9 -845.3,6090.6 -910.9,6128.7 -976.6,6090.9  "/><path d="M-910.9,6137.3l-73.2-42.1l-0.1-84.5l73.1-42.3l73.2,42.1l0.2,84.4L-910.9,6137.3z M-969.1,6086.5l58.2,33.5l58.1-33.7   l-0.1-67.1l-58.2-33.5l-58.1,33.6L-969.1,6086.5z"/></g><g><polygon points="-713.4,5863.9 -647.7,5826.2 -582.2,5864.3 -582.3,5940.1 -648.2,5977.8 -713.7,5939.7  "/><path d="M-648.2,5986.5l-73-42.4l0.3-84.5l73.2-42l73,42.4l-0.1,84.5L-648.2,5986.5z M-706.2,5935.4l58,33.7l58.3-33.4l0.1-67.1   l-58.1-33.7l-58.2,33.4L-706.2,5935.4z"/></g><g><polygon points="-975.6,5711.5 -909.9,5673.8 -844.3,5711.9 -844.5,5787.7 -910.3,5825.4 -975.9,5787.3  "/><path d="M-910.4,5834.1l-73-42.4l0.3-84.5l73.2-42l73,42.4l-0.1,84.5L-910.4,5834.1z M-968.4,5783l58,33.7l58.3-33.4l0.1-67.1   l-58.1-33.7l-58.2,33.4L-968.4,5783z"/></g><g><polygon points="-1238.6,5862.2 -1172.9,5824.5 -1107.4,5862.6 -1107.5,5938.4 -1173.3,5976.1 -1238.9,5938  "/><path d="M-1173.4,5984.8l-73-42.4l0.3-84.5l73.2-42l73,42.4l-0.1,84.5L-1173.4,5984.8z M-1231.4,5933.7l58,33.7l58.3-33.4l0.1-67.1   l-58.1-33.7l-58.2,33.4L-1231.4,5933.7z"/></g><g><polygon points="-1239.6,6165.5 -1173.8,6127.9 -1108.3,6166 -1108.4,6241.8 -1174.3,6279.5 -1239.8,6241.4  "/><path d="M-1174.3,6288.1l-73-42.4l0.3-84.5l73.2-42l73,42.4l-0.1,84.5L-1174.3,6288.1z M-1232.3,6237.1l58,33.7l58.3-33.4l0.1-67.1   l-58.1-33.7l-58.2,33.4L-1232.3,6237.1z"/></g><g><polygon points="-714.3,6167.1 -648.6,6129.5 -583,6167.6 -583.2,6243.4 -649,6281.1 -714.6,6243  "/><path d="M-649.1,6289.7l-73-42.4l0.3-84.5l73.2-42l73,42.4l-0.1,84.5L-649.1,6289.7z M-707,6238.7l58,33.7l58.3-33.4l0.1-67.1   l-58.1-33.7l-58.2,33.4L-707,6238.7z"/></g><g><polygon points="-977.4,6317.9 -911.7,6280.3 -846.1,6318.4 -846.2,6394.2 -912.1,6431.9 -977.6,6393.8  "/><path d="M-912.1,6440.5l-73-42.4l0.3-84.5l73.2-42l73,42.4l-0.1,84.5L-912.1,6440.5z M-970.1,6389.5l58,33.7l58.3-33.4l0.1-67.1   l-58.1-33.7l-58.2,33.4L-970.1,6389.5z"/></g><g><path d="M-904.2,6280.3l-15,0l0.1-19.6l15,0L-904.2,6280.3z M-904,6238.7l-15,0l0.1-22l15,0L-904,6238.7z M-903.9,6194.7l-15,0   l0.1-22l15,0L-903.9,6194.7z M-903.8,6150.7l-15,0l0.1-22l15,0L-903.8,6150.7z"/></g><g><path d="M-1166.3,6127.9l-15,0l0.1-19.8l15,0L-1166.3,6127.9z M-1166.2,6086.1l-15,0l0.1-22l15,0L-1166.2,6086.1z M-1166.1,6042.1   l-15,0l0.1-22l15,0L-1166.1,6042.1z M-1165.9,5998.1l-15,0l0.1-22l15,0L-1165.9,5998.1z"/></g><g><path d="M-981.2,6324.4l-16.9-9.8l7.5-13l16.9,9.8L-981.2,6324.4z M-1017.1,6303.5l-19-11.1l7.5-13l19,11.1L-1017.1,6303.5z    M-1055.1,6281.4l-19-11.1l7.5-13l19,11.1L-1055.1,6281.4z M-1093.2,6259.3l-19-11.1l7.5-13l19,11.1L-1093.2,6259.3z"/></g><g><path d="M-842.4,6324.9l-7.5-13l19.1-10.9l7.5,13L-842.4,6324.9z M-804.2,6303l-7.5-13l19.1-10.9l7.5,13L-804.2,6303z M-766,6281.1   l-7.5-13l19.1-10.9l7.5,13L-766,6281.1z M-727.9,6259.2l-7.5-13l17-9.8l7.5,13L-727.9,6259.2z"/></g><g><path d="M-980.4,6021.5l-16.9-9.9l7.6-12.9l16.9,9.9L-980.4,6021.5z M-1016.3,6000.5l-19-11.1l7.6-12.9l19,11.1L-1016.3,6000.5z    M-1054.3,5978.2l-19-11.1l7.6-12.9l19,11.1L-1054.3,5978.2z M-1092.3,5956l-19-11.1l7.6-12.9l19,11.1L-1092.3,5956z"/></g><g><path d="M-841.7,6021.4l-7.4-13l17-9.7l7.4,13L-841.7,6021.4z M-805.5,6000.8l-7.4-13l19.1-10.9l7.4,13L-805.5,6000.8z    M-767.3,5979l-7.4-13l19.1-10.9l7.4,13L-767.3,5979z M-729.1,5957.2l-7.4-13l19.1-10.9l7.4,13L-729.1,5957.2z"/></g><g><path d="M-641.1,6129.5l-15,0l0.1-22l15,0L-641.1,6129.5z M-641,6085.5l-15,0l0.1-22l15,0L-641,6085.5z M-640.8,6041.5l-15,0   l0.1-22l15,0L-640.8,6041.5z M-640.7,5997.5l-15,0l0.1-19.6l15,0L-640.7,5997.5z"/></g><g><path d="M-717.2,5870.4l-19-11.1l7.5-13l19,11.1L-717.2,5870.4z M-755.3,5848.3l-19-11.1l7.5-13l19,11.1L-755.3,5848.3z    M-793.3,5826.1l-19-11.1l7.5-13l19,11.1L-793.3,5826.1z M-831.3,5804l-16.9-9.8l7.5-13l16.9,9.8L-831.3,5804z"/></g><g><path d="M-1103.6,5869.1l-7.5-13l16.9-9.7l7.5,13L-1103.6,5869.1z M-1067.6,5848.5l-7.5-13l19.1-10.9l7.5,13L-1067.6,5848.5z    M-1029.4,5826.6l-7.5-13l19.1-10.9l7.5,13L-1029.4,5826.6z M-991.2,5804.8l-7.5-13l19.1-10.9l7.5,13L-991.2,5804.8z"/></g><g><polygon points="-3300.2,4974.9 -3234.7,4936.9 -3169,4974.7 -3168.8,5050.5 -3234.4,5088.5 -3300.1,5050.7  "/><path d="M-3234.4,5097.2l-73.2-42.1l-0.1-84.5l73.1-42.3l73.2,42.1l0.2,84.4L-3234.4,5097.2z M-3292.7,5046.4l58.2,33.5l58.1-33.7   l-0.1-67.1l-58.2-33.5l-58.1,33.6L-3292.7,5046.4z"/></g><g><polygon points="-3037,4823.7 -2971.3,4786.1 -2905.8,4824.2 -2905.9,4900 -2971.7,4937.7 -3037.3,4899.6  "/><path d="M-2971.8,4946.3l-73-42.4l0.3-84.5l73.2-42l73,42.4l-0.1,84.5L-2971.8,4946.3z M-3029.8,4895.3l58,33.7l58.3-33.4l0.1-67.1   l-58.1-33.7l-58.2,33.4L-3029.8,4895.3z"/></g><g><polygon points="-3299.2,4671.3 -3233.5,4633.7 -3167.9,4671.8 -3168,4747.6 -3233.9,4785.3 -3299.4,4747.2  "/><path d="M-3233.9,4793.9l-73-42.4l0.3-84.5l73.2-42l73,42.4l-0.1,84.5L-3233.9,4793.9z M-3291.9,4742.9l58,33.7l58.3-33.4l0.1-67.1   l-58.1-33.7l-58.2,33.4L-3291.9,4742.9z"/></g><g><polygon points="-3562.2,4822 -3496.5,4784.4 -3430.9,4822.4 -3431,4898.3 -3496.9,4936 -3562.5,4897.9  "/><path d="M-3496.9,4944.6l-73-42.4l0.3-84.5l73.2-42l73,42.4l-0.1,84.5L-3496.9,4944.6z M-3554.9,4893.6l58,33.7l58.3-33.4l0.1-67.1   l-58.1-33.7l-58.2,33.4L-3554.9,4893.6z"/></g><g><polygon points="-3563.1,5125.4 -3497.4,5087.7 -3431.9,5125.8 -3432,5201.6 -3497.9,5239.3 -3563.4,5201.2  "/><path d="M-3497.9,5248l-73-42.4l0.3-84.5l73.2-42l73,42.4l-0.1,84.5L-3497.9,5248z M-3555.9,5196.9l58,33.7l58.3-33.4l0.1-67.1   l-58.1-33.7l-58.2,33.4L-3555.9,5196.9z"/></g><g><polygon points="-3037.9,5127 -2972.2,5089.3 -2906.6,5127.4 -2906.7,5203.2 -2972.6,5240.9 -3038.1,5202.8  "/><path d="M-2972.6,5249.6l-73-42.4l0.3-84.5l73.2-42l73,42.4l-0.1,84.5L-2972.6,5249.6z M-3030.6,5198.5l58,33.7l58.3-33.4l0.1-67.1   l-58.1-33.7l-58.2,33.4L-3030.6,5198.5z"/></g><g><polygon points="-3301,5277.8 -3235.2,5240.1 -3169.7,5278.2 -3169.8,5354 -3235.7,5391.7 -3301.2,5353.6  "/><path d="M-3235.7,5400.4l-73-42.4l0.3-84.5l73.2-42l73,42.4l-0.1,84.5L-3235.7,5400.4z M-3293.7,5349.3l58,33.7l58.3-33.4l0.1-67.1   l-58.1-33.7l-58.2,33.4L-3293.7,5349.3z"/></g><g><rect x="-3310.8" y="5156.8" transform="matrix(2.994790e-03 -1 1 2.994790e-03 -8389.623 1913.8617)" width="151.6" height="15"/></g><g><rect x="-3573" y="5004.3" transform="matrix(3.255218e-03 -1 1 3.255218e-03 -8497.5947 1498.3802)" width="151.8" height="15"/></g><g><rect x="-3374" y="5163.9" transform="matrix(0.5026 -0.8645 0.8645 0.5026 -6204.4888 -304.0701)" width="15" height="151.6"/></g><g><rect x="-3179.7" y="5233" transform="matrix(0.8677 -0.4972 0.4972 0.8677 -3016.136 -849.6089)" width="151.6" height="15"/></g><g><rect x="-3373.1" y="4860.8" transform="matrix(0.5054 -0.8629 0.8629 0.5054 -5924.5879 -462.4153)" width="15" height="151.6"/></g><g><rect x="-3178.9" y="4929.7" transform="matrix(0.8686 -0.4955 0.4955 0.8686 -2854.1296 -888.8951)" width="151.6" height="15"/></g><g><rect x="-3047.8" y="5006" transform="matrix(2.734365e-03 -1 1 2.734365e-03 -7977.3042 2027.8561)" width="151.6" height="15"/></g><g><rect x="-3110" y="4709.9" transform="matrix(0.5026 -0.8645 0.8645 0.5026 -5680.646 -301.7336)" width="15" height="151.5"/></g><g><rect x="-3440.9" y="4777.3" transform="matrix(0.8679 -0.4968 0.4968 0.8679 -2821.717 -1039.5811)" width="151.5" height="15"/></g><g><rect x="-3441.8" y="5080.8" transform="matrix(0.8687 -0.4953 0.4953 0.8687 -2961.8257 -999.1893)" width="151.6" height="15"/></g><g><rect x="-3310.1" y="4853.6" transform="matrix(4.947917e-03 -1 1 4.947917e-03 -8079.3203 1602.7927)" width="151.6" height="15"/></g><g><rect x="-3110.9" y="5012.9" transform="matrix(0.5045 -0.8634 0.8634 0.5045 -5931.3711 -158.0157)" width="15" height="151.7"/></g><g><polygon points="-2039.4,4898.1 -1973.8,4860.2 -1908.1,4898 -1907.9,4973.7 -1973.6,5011.8 -2039.3,4974  "/><path d="M-1973.6,5020.4l-73.2-42.1l-0.1-84.5l73.1-42.3l73.2,42.1l0.2,84.4L-1973.6,5020.4z M-2031.8,4969.6l58.2,33.5l58.1-33.7   l-0.1-67.1l-58.2-33.5l-58.1,33.6L-2031.8,4969.6z"/></g><g><polygon points="-1776.1,4747 -1710.4,4709.3 -1644.9,4747.4 -1645,4823.2 -1710.9,4860.9 -1776.4,4822.8  "/><path d="M-1710.9,4869.6l-73-42.4l0.3-84.5l73.2-42l73,42.4l-0.1,84.5L-1710.9,4869.6z M-1768.9,4818.5l58,33.7l58.3-33.4l0.1-67.1   l-58.1-33.7l-58.2,33.4L-1768.9,4818.5z"/></g><g><polygon points="-2038.3,4594.6 -1972.6,4556.9 -1907,4595 -1907.2,4670.8 -1973,4708.5 -2038.6,4670.4  "/><path d="M-1973.1,4717.2l-73-42.4l0.3-84.5l73.2-42l73,42.4l-0.1,84.5L-1973.1,4717.2z M-2031.1,4666.1l58,33.7l58.3-33.4l0.1-67.1   l-58.1-33.7l-58.2,33.4L-2031.1,4666.1z"/></g><g><polygon points="-2301.3,4745.3 -2235.6,4707.6 -2170.1,4745.7 -2170.2,4821.5 -2236,4859.2 -2301.6,4821.1  "/><path d="M-2236.1,4867.9l-73-42.4l0.3-84.5l73.2-42l73,42.4l-0.1,84.5L-2236.1,4867.9z M-2294.1,4816.8l58,33.7l58.3-33.4l0.1-67.1   l-58.1-33.7l-58.2,33.4L-2294.1,4816.8z"/></g><g><polygon points="-2302.3,5048.6 -2236.5,5011 -2171,5049.1 -2171.1,5124.9 -2237,5162.6 -2302.5,5124.5  "/><path d="M-2237,5171.2l-73-42.4l0.3-84.5l73.2-42l73,42.4l-0.1,84.5L-2237,5171.2z M-2295,5120.2l58,33.7l58.3-33.4l0.1-67.1   l-58.1-33.7l-58.2,33.4L-2295,5120.2z"/></g><g><polygon points="-1777,5050.2 -1711.3,5012.6 -1645.7,5050.7 -1645.9,5126.5 -1711.7,5164.2 -1777.3,5126.1  "/><path d="M-1711.8,5172.8l-73-42.4l0.3-84.5l73.2-42l73,42.4l-0.1,84.5L-1711.8,5172.8z M-1769.7,5121.8l58,33.7l58.3-33.4l0.1-67.1   l-58.1-33.7l-58.2,33.4L-1769.7,5121.8z"/></g><g><polygon points="-2040.1,5201.1 -1974.4,5163.4 -1908.8,5201.5 -1908.9,5277.3 -1974.8,5315 -2040.3,5276.9  "/><path d="M-1974.8,5323.7l-73-42.4l0.3-84.5l73.2-42l73,42.4l-0.1,84.5L-1974.8,5323.7z M-2032.8,5272.6l58,33.7l58.3-33.4l0.1-67.1   l-58.1-33.7l-58.2,33.4L-2032.8,5272.6z"/></g><g><path d="M-1966.9,5163.4l-15,0l0.1-19.6l15,0L-1966.9,5163.4z M-1966.7,5121.8l-15,0l0.1-22l15,0L-1966.7,5121.8z M-1966.6,5077.8   l-15,0l0.1-22l15,0L-1966.6,5077.8z M-1966.5,5033.8l-15,0l0.1-22l15,0L-1966.5,5033.8z"/></g><g><rect x="-2312.2" y="4927.6" transform="matrix(3.255191e-03 -1 1 3.255191e-03 -7164.0776 2682.7593)" width="151.8" height="15"/></g><g><rect x="-2113.1" y="5087.2" transform="matrix(0.5026 -0.8645 0.8645 0.5026 -5510.9478 747.8297)" width="15" height="151.6"/></g><g><rect x="-1918.9" y="5156.3" transform="matrix(0.8677 -0.4971 0.4971 0.8677 -2811.0422 -232.9242)" width="151.6" height="15"/></g><g><path d="M-2043.1,4904.6l-16.9-9.9l7.6-12.9l16.9,9.9L-2043.1,4904.6z M-2079,4883.6l-19-11.1l7.6-12.9l19,11.1L-2079,4883.6z    M-2117,4861.3l-19-11.1l7.6-12.9l19,11.1L-2117,4861.3z M-2155,4839.1l-19-11.1l7.6-12.9l19,11.1L-2155,4839.1z"/></g><g><path d="M-1904.4,4904.5l-7.4-13l17-9.7l7.4,13L-1904.4,4904.5z M-1868.2,4883.9l-7.4-13l19.1-10.9l7.4,13L-1868.2,4883.9z    M-1830,4862.1l-7.4-13l19.1-10.9l7.4,13L-1830,4862.1z M-1791.8,4840.3l-7.4-13l19.1-10.9l7.4,13L-1791.8,4840.3z"/></g><g><rect x="-1786.9" y="4929.3" transform="matrix(2.734365e-03 -1 1 2.734365e-03 -6643.1289 3212.196)" width="151.6" height="15"/></g><g><rect x="-1849.2" y="4633.1" transform="matrix(0.5026 -0.8645 0.8645 0.5026 -4987.1064 750.1667)" width="15" height="151.6"/></g><g><rect x="-2180.1" y="4700.6" transform="matrix(0.8679 -0.4968 0.4968 0.8679 -2616.989 -423.3238)" width="151.5" height="15"/></g><g><path d="M-2167.3,5055.6l-7.4-13l19.1-10.9l7.4,13L-2167.3,5055.6z M-2129.1,5033.8l-7.4-13l19.1-10.9l7.4,13L-2129.1,5033.8z    M-2090.8,5012l-7.4-13l19.1-10.9l7.4,13L-2090.8,5012z M-2052.6,4990.2l-7.4-13l17.1-9.7l7.4,13L-2052.6,4990.2z"/></g><g><path d="M-1966.3,4860.2l-15-0.1l0.1-22l15,0.1L-1966.3,4860.2z M-1966.1,4816.2l-15-0.1l0.1-22l15,0.1L-1966.1,4816.2z    M-1965.8,4772.2l-15-0.1l0.1-22l15,0.1L-1965.8,4772.2z M-1965.6,4728.2l-15-0.1l0.1-19.6l15,0.1L-1965.6,4728.2z"/></g><g><path d="M-1780.8,5056.7l-17-9.9l7.6-13l17,9.9L-1780.8,5056.7z M-1816.8,5035.7l-19-11.1l7.6-13l19,11.1L-1816.8,5035.7z    M-1854.7,5013.5l-19-11.1l7.6-13l19,11.1L-1854.7,5013.5z M-1892.7,4991.3l-19-11.1l7.6-13l19,11.1L-1892.7,4991.3z"/></g><g><polygon points="-948.7,4899.9 -883.1,4861.9 -817.4,4899.7 -817.3,4975.5 -882.9,5013.5 -948.6,4975.7  "/><path d="M-882.9,5022.2l-73.2-42.1l-0.1-84.5l73.1-42.3l73.2,42.1l0.2,84.4L-882.9,5022.2z M-941.1,4971.4l58.2,33.5l58.1-33.7   l-0.1-67.1l-58.2-33.5l-58.1,33.6L-941.1,4971.4z"/></g><g><polygon points="-685.5,4748.7 -619.8,4711.1 -554.2,4749.1 -554.4,4825 -620.2,4862.7 -685.8,4824.6  "/><path d="M-620.3,4871.3l-73-42.4l0.3-84.5l73.2-42l73,42.4l-0.1,84.5L-620.3,4871.3z M-678.2,4820.3l58,33.7l58.3-33.4l0.1-67.1   l-58.1-33.7l-58.2,33.4L-678.2,4820.3z"/></g><g><polygon points="-947.7,4596.3 -881.9,4558.6 -816.4,4596.7 -816.5,4672.6 -882.4,4710.3 -947.9,4672.2  "/><path d="M-882.4,4718.9l-73-42.4l0.3-84.5l73.2-42l73,42.4l-0.1,84.5L-882.4,4718.9z M-940.4,4667.9l58,33.7l58.3-33.4l0.1-67.1   l-58.1-33.7l-58.2,33.4L-940.4,4667.9z"/></g><g><polygon points="-1210.7,4747 -1144.9,4709.3 -1079.4,4747.4 -1079.5,4823.2 -1145.4,4860.9 -1210.9,4822.8  "/><path d="M-1145.4,4869.6l-73-42.4l0.3-84.5l73.2-42l73,42.4l-0.1,84.5L-1145.4,4869.6z M-1203.4,4818.5l58,33.7l58.3-33.4l0.1-67.1   l-58.1-33.7l-58.2,33.4L-1203.4,4818.5z"/></g><g><polygon points="-1211.6,5050.4 -1145.9,5012.7 -1080.4,5050.8 -1080.5,5126.6 -1146.3,5164.3 -1211.9,5126.2  "/><path d="M-1146.4,5173l-73-42.4l0.3-84.5l73.2-42l73,42.4l-0.1,84.5L-1146.4,5173z M-1204.4,5121.9l58,33.7l58.3-33.4l0.1-67.1   l-58.1-33.7l-58.2,33.4L-1204.4,5121.9z"/></g><g><polygon points="-686.4,5052 -620.6,5014.3 -555.1,5052.4 -555.2,5128.2 -621.1,5165.9 -686.6,5127.8  "/><path d="M-621.1,5174.6l-73-42.4l0.3-84.5l73.2-42l73,42.4l-0.1,84.5L-621.1,5174.6z M-679.1,5123.5l58,33.7l58.3-33.4l0.1-67.1   l-58.1-33.7l-58.2,33.4L-679.1,5123.5z"/></g><g><polygon points="-949.5,5202.8 -883.7,5165.1 -818.2,5203.2 -818.3,5279 -884.2,5316.7 -949.7,5278.6  "/><path d="M-884.2,5325.4l-73-42.4l0.3-84.5l73.2-42l73,42.4l-0.1,84.5L-884.2,5325.4z M-942.2,5274.3l58,33.7l58.3-33.4l0.1-67.1   l-58.1-33.7l-58.2,33.4L-942.2,5274.3z"/></g><g><path d="M-876.2,5165.1l-15,0l0.1-19.6l15,0L-876.2,5165.1z M-876.1,5123.5l-15,0l0.1-22l15,0L-876.1,5123.5z M-876,5079.5l-15,0   l0.1-22l15,0L-876,5079.5z M-875.8,5035.5l-15,0l0.1-22l15,0L-875.8,5035.5z"/></g><g><path d="M-1138.4,5012.7l-15,0l0.1-19.8l15,0L-1138.4,5012.7z M-1138.3,4971l-15,0l0.1-22l15,0L-1138.3,4971z M-1138.1,4927l-15,0   l0.1-22l15,0L-1138.1,4927z M-1138,4883l-15,0l0.1-22l15,0L-1138,4883z"/></g><g><path d="M-953.2,5209.3l-16.9-9.8l7.5-13l16.9,9.8L-953.2,5209.3z M-989.1,5188.4l-19-11.1l7.5-13l19,11.1L-989.1,5188.4z    M-1027.2,5166.3l-19-11.1l7.5-13l19,11.1L-1027.2,5166.3z M-1065.2,5144.2l-19-11.1l7.5-13l19,11.1L-1065.2,5144.2z"/></g><g><path d="M-814.5,5209.7l-7.5-13l19.1-10.9l7.5,13L-814.5,5209.7z M-776.3,5187.8l-7.5-13l19.1-10.9l7.5,13L-776.3,5187.8z    M-738.1,5166l-7.5-13l19.1-10.9l7.5,13L-738.1,5166z M-699.9,5144.1l-7.5-13l17-9.8l7.5,13L-699.9,5144.1z"/></g><g><path d="M-952.5,4906.3l-16.9-9.9l7.6-12.9l16.9,9.9L-952.5,4906.3z M-988.4,4885.3l-19-11.1l7.6-12.9l19,11.1L-988.4,4885.3z    M-1026.4,4863.1l-19-11.1l7.6-12.9l19,11.1L-1026.4,4863.1z M-1064.3,4840.8l-19-11.1l7.6-12.9l19,11.1L-1064.3,4840.8z"/></g><g><path d="M-813.7,4906.2l-7.4-13l17-9.7l7.4,13L-813.7,4906.2z M-777.6,4885.6l-7.4-13l19.1-10.9l7.4,13L-777.6,4885.6z    M-739.4,4863.8l-7.4-13l19.1-10.9l7.4,13L-739.4,4863.8z M-701.1,4842l-7.4-13l19.1-10.9l7.4,13L-701.1,4842z"/></g><g><path d="M-613.1,5014.3l-15,0l0.1-22l15,0L-613.1,5014.3z M-613,4970.3l-15,0l0.1-22l15,0L-613,4970.3z M-612.9,4926.3l-15,0   l0.1-22l15,0L-612.9,4926.3z M-612.8,4882.3l-15,0l0.1-19.6l15,0L-612.8,4882.3z"/></g><g><path d="M-689.3,4755.2l-19-11.1l7.5-13l19,11.1L-689.3,4755.2z M-727.3,4733.1l-19-11.1l7.5-13l19,11.1L-727.3,4733.1z    M-765.3,4711l-19-11.1l7.5-13l19,11.1L-765.3,4711z M-803.4,4688.9l-16.9-9.8l7.5-13l16.9,9.8L-803.4,4688.9z"/></g><g><path d="M-1075.7,4753.9l-7.5-13l16.9-9.7l7.5,13L-1075.7,4753.9z M-1039.7,4733.3l-7.5-13l19.1-10.9l7.5,13L-1039.7,4733.3z    M-1001.5,4711.5l-7.5-13l19.1-10.9l7.5,13L-1001.5,4711.5z M-963.3,4689.6l-7.5-13l19.1-10.9l7.5,13L-963.3,4689.6z"/></g><g><path d="M-1076.6,5057.3l-7.4-13l19.1-10.9l7.4,13L-1076.6,5057.3z M-1038.4,5035.5l-7.4-13l19.1-10.9l7.4,13L-1038.4,5035.5z    M-1000.2,5013.7l-7.4-13l19.1-10.9l7.4,13L-1000.2,5013.7z M-962,4991.9l-7.4-13l17.1-9.7l7.4,13L-962,4991.9z"/></g><g><path d="M-875.6,4861.9l-15-0.1l0.1-22l15,0.1L-875.6,4861.9z M-875.4,4817.9l-15-0.1l0.1-22l15,0.1L-875.4,4817.9z M-875.2,4773.9   l-15-0.1l0.1-22l15,0.1L-875.2,4773.9z M-875,4729.9l-15-0.1l0.1-19.6l15,0.1L-875,4729.9z"/></g><g><path d="M-690.1,5058.4l-17-9.9l7.6-13l17,9.9L-690.1,5058.4z M-726.1,5037.4l-19-11.1l7.6-13l19,11.1L-726.1,5037.4z    M-764.1,5015.2l-19-11.1l7.6-13l19,11.1L-764.1,5015.2z M-802.1,4993l-19-11.1l7.6-13l19,11.1L-802.1,4993z"/></g><text x="0" y="135" fill="#000000" font-size="5px" font-weight="bold" font-family="'Helvetica Neue', Helvetica, Arial-Unicode, Arial, Sans-serif">Created by Ricardo Ruz</text><text x="0" y="140" fill="#000000" font-size="5px" font-weight="bold" font-family="'Helvetica Neue', Helvetica, Arial-Unicode, Arial, Sans-serif">from the Noun Project</text></svg>