<?xml version="1.0" encoding="utf-8"?>
<!-- Generator: Adobe Illustrator 19.0.0, SVG Export Plug-In . SVG Version: 6.00 Build 0)  -->
<svg version="1.1" id="Layer_1" xmlns="http://www.w3.org/2000/svg" xmlns:xlink="http://www.w3.org/1999/xlink" x="0px" y="0px"
	 viewBox="0 0 36 36" style="enable-background:new 0 0 36 36;" xml:space="preserve">
<style type="text/css">
	.st0{fill:#010101;}
	.st1{fill:none;stroke:#010101;stroke-miterlimit:10;}
</style>
<g>
	<g>
		<path class="st0" d="M17.9,23c0.2,0.8,0.6,1.7,0.7,2.2c0.2,1.6-2.1,2.4-3,1.1c-0.4-0.6-0.5-1.2-0.8-2.2c-1.2,0.3-1.8,0.8-2.6,0.7
			c-1.3-0.2-1.7-2-0.7-2.8c0.6-0.5,1.5-0.5,2.3-0.9c0,0-0.8-2.4-1.2-3.5c-0.9,0.3-2.1,0.8-2.7,0.7c-0.7-0.3-1.2-0.8-1.1-1.6
			c0-1.5,1.7-1.6,2.9-2.1c-0.3-0.9-0.7-1.5-0.7-2.4c0.1-1.2,1.5-1.9,2.6-1.2c0.5,0.4,0.8,1.6,1.1,2.6l3.5-1.1
			C17.8,11.2,17,9.9,18,8.9c0.7-0.7,2-0.5,2.5,0.2c0.5,0.7,0.5,1.5,0.8,2.2c0.9-0.3,2.1-0.9,3-0.6c0.7,0.2,1.1,1.2,0.9,1.8
			c-0.4,1.2-1.7,1.3-2.9,1.7l1.1,3.5c1-0.3,1.5-0.7,2.4-0.7c0.9,0,1.5,0.7,1.6,1.4c0.2,1.7-1.7,1.9-3,2.3c0.4,1.2,0.7,1.5,0.7,2.4
			c0,1.7-2.1,2-3,0.8c-0.3-0.5-0.4-1.2-0.7-2.1C21.4,21.9,18,23.1,17.9,23z M20.4,18.9l-1.2-3.5l-3.4,1.2l1.1,3.5L20.4,18.9z"/>
	</g>
</g>
<polygon id="XMLID_3_" class="st1" points="31.3,25.3 18.1,33 4.8,25.3 4.8,10 18.1,2.4 31.3,10 "/>
</svg>
