<svg id="Layer_1" data-name="Layer 1" xmlns="http://www.w3.org/2000/svg" viewBox="0 0 371.18 351"><defs><style>.cls-1,.cls-5,.cls-6,.cls-7{fill:none}.cls-1,.cls-2,.cls-6,.cls-7{stroke:#fff}.cls-1,.cls-6,.cls-7{stroke-linecap:round}.cls-1,.cls-6{stroke-linejoin:round}.cls-1,.cls-5,.cls-7{stroke-width:4px}.cls-2,.cls-3,.cls-4{font-size:13.25px;fill:#fff;font-family:AvenirNextLTPro-Regular,Avenir Next LT Pro}.cls-2,.cls-3,.cls-5,.cls-7{stroke-miterlimit:10}.cls-2,.cls-3{stroke-width:.5px}.cls-3,.cls-5{stroke:#000}.cls-6{stroke-width:5px}</style></defs><title>logo_final_white</title><path class="cls-1" d="M152.17 140.05l36.23 15.96 9.37-32.02m36.23 15.8l-36.17-15.9"/><text class="cls-2" transform="rotate(-165.36 100.363 157.3)">S</text><text class="cls-2" transform="rotate(-161.8 100.62 153.714)">T</text><text class="cls-2" transform="rotate(-157.49 100.793 150.55)">R</text><text class="cls-2" transform="rotate(-153.14 101.372 146.825)">A</text><text class="cls-2" transform="rotate(-149.3 100.875 143.27)">T</text><text class="cls-4" transform="rotate(-143 100.943 137.48)">/</text><text class="cls-4" transform="rotate(-140.1 101.066 134.6)">/</text><text class="cls-4" transform="rotate(-134 102.177 128.987)">R</text><text class="cls-4" transform="rotate(-129.34 103.25 124.686)">O</text><text class="cls-4" transform="rotate(-124.43 103.044 119.33)">U</text><text class="cls-4" transform="rotate(-120.31 102.594 114.456)">L</text><text class="cls-4" transform="rotate(-116.44 103.082 110.208)">E</text><text class="cls-4" transform="rotate(-112.45 103.242 105.417)">T</text><text class="cls-4" transform="rotate(-108.48 103.504 100.483)">T</text><text class="cls-4" transform="rotate(-104.46 103.877 95.305)">E</text><path class="cls-6" d="M174.5 331V209.33c0-33.86 28.32-61.31 62.18-61.31s61.87 27.45 61.87 61.31a61.32 61.32 0 0 1-61.32 61.31l60.93 60.19" transform="translate(-44.32 -65)"/><path class="cls-7" d="M240 414A173.5 173.5 0 1 0 66.5 240.5" transform="translate(-44.32 -65)"/></svg>