<svg id="Layer_1" data-name="Layer 1" xmlns="http://www.w3.org/2000/svg" viewBox="0 0 371.18 351"><defs><style>.cls-1,.cls-5,.cls-6,.cls-7{fill:none;}.cls-1,.cls-2,.cls-6,.cls-7{stroke:#fff;}.cls-1,.cls-6,.cls-7{stroke-linecap:round;}.cls-1,.cls-6{stroke-linejoin:round;}.cls-1,.cls-5,.cls-7{stroke-width:4px;}.cls-2,.cls-3,.cls-4{font-size:13.25px;fill:#fff;font-family:AvenirNextLTPro-Regular, Avenir Next LT Pro;}.cls-2,.cls-3,.cls-5,.cls-7{stroke-miterlimit:10;}.cls-2,.cls-3{stroke-width:0.5px;}.cls-3,.cls-5{stroke:#000;}.cls-6{stroke-width:5px;}</style></defs><title>logo_final_white</title><polyline class="cls-1" points="152.17 140.05 188.4 156.01 197.77 123.99"/><line class="cls-1" x1="234" y1="139.79" x2="197.83" y2="123.89"/><text class="cls-2" transform="translate(157.71 334.86) rotate(-165.36)">S</text><text class="cls-2" transform="matrix(-0.95, -0.32, 0.32, -0.95, 147.02, 331.94)">T</text><text class="cls-2" transform="translate(136.27 328.22) rotate(-157.49)">R</text><text class="cls-2" transform="translate(125.47 323.61) rotate(-153.14)">A</text><text class="cls-2" transform="matrix(-0.86, -0.51, 0.51, -0.86, 114.56, 317.93)">T</text><text class="cls-3" transform="translate(105.12 312.11) rotate(-145.97)"> </text><text class="cls-4" transform="matrix(-0.8, -0.6, 0.6, -0.8, 99.21, 308.03)">/</text><text class="cls-4" transform="translate(92.26 302.69) rotate(-140.1)">/</text><text class="cls-4" transform="matrix(-0.73, -0.68, 0.68, -0.73, 85.6, 296.98)"> </text><text class="cls-4" transform="translate(80.37 292.09) rotate(-134)">R</text><text class="cls-4" transform="translate(72.27 283.58) rotate(-129.34)">O</text><text class="cls-4" transform="translate(62.88 271.79) rotate(-124.43)">U</text><text class="cls-4" transform="translate(55.56 260.79) rotate(-120.31)">L</text><text class="cls-4" transform="translate(50.3 251.58) rotate(-116.44)">E</text><text class="cls-4" transform="translate(45.24 241.09) rotate(-112.45)">T</text><text class="cls-4" transform="translate(41.01 230.5) rotate(-108.48)">T</text><text class="cls-4" transform="translate(37.53 219.69) rotate(-104.46)">E</text><path class="cls-5" d="M283.25,120" transform="translate(-44.32 -65)"/><path class="cls-6" d="M174.5,331V209.33c0-33.86,28.32-61.31,62.18-61.31s61.87,27.45,61.87,61.31a61.32,61.32,0,0,1-61.32,61.31l60.93,60.19" transform="translate(-44.32 -65)"/><path class="cls-7" d="M240,414A173.5,173.5,0,1,0,66.5,240.5" transform="translate(-44.32 -65)"/></svg>