<svg xmlns="http://www.w3.org/2000/svg" xmlns:xlink="http://www.w3.org/1999/xlink" version="1.1" x="0px" y="0px" viewBox="0 0 100 125" style="enable-background:new 0 0 100 100;" xml:space="preserve"><g><path d="M94.8,76.4H7.7V25.3h87.1V76.4z M9.5,74.6H93V27H9.5V74.6z"/></g><path d="M76.8,36.2c1.3,4.3,4.2,7.6,7.9,9.2v5.4v5.4c-3.7,1.6-6.6,5-7.9,9.2H51.3H25.7c-1.3-4.3-4.2-7.6-7.9-9.2v-5.4v-5.4  c3.7-1.6,6.6-5,7.9-9.2h25.5H76.8 M78.2,34.4H51.3H24.3c-1,4.8-4.2,8.5-8.4,9.8v6.7v6.7c4.1,1.2,7.3,5,8.4,9.8h26.9h26.9  c1-4.8,4.2-8.5,8.4-9.8v-6.7v-6.7C82.4,42.9,79.2,39.2,78.2,34.4L78.2,34.4z"/><g><path d="M79.7,32.3c0.4,5.3,4,9.5,8.6,10.1v8.5v8.5c-4.5,0.6-8.1,4.8-8.6,10.1H51.3H22.8c-0.4-5.3-4-9.5-8.6-10.1v-8.5v-8.5   c4.5-0.6,8.1-4.8,8.6-10.1h28.5H79.7 M81,31h-1.2H51.3H22.8h-1.2l-0.1,1.2C21.1,36.8,18,40.5,14,41l-1.2,0.2v1.2v8.5v8.5v1.2   l1.2,0.2c3.9,0.5,7,4.2,7.4,8.8l0.1,1.2h1.2h28.5h28.5H81l0.1-1.2c0.4-4.6,3.5-8.3,7.4-8.8l1.2-0.2v-1.2v-8.5v-8.5v-1.2L88.5,41   c-3.9-0.5-7-4.2-7.4-8.8L81,31L81,31z"/></g><g><path d="M51.3,39.9c3.1,0,5.9,1.2,8.1,3.2c2.1,2.1,3.3,4.8,3.3,7.7s-1.2,5.7-3.3,7.7c-2.2,2.1-5,3.2-8.1,3.2   c-3.1,0-5.9-1.1-8.1-3.2c-2.1-2.1-3.3-4.8-3.3-7.7s1.2-5.7,3.3-7.7C45.3,41,48.2,39.9,51.3,39.9 M51.3,38C43.9,38,38,43.7,38,50.8   s6,12.9,13.3,12.9s13.3-5.8,13.3-12.9S58.6,38,51.3,38L51.3,38z"/></g><g><path d="M50.2,43v-1.2h2.1V43c1.8,0.4,2.7,1.7,2.7,3.9v0.5h-2.4v-0.7c0-1.1-0.5-1.6-1.3-1.6s-1.3,0.4-1.3,1.6   c0,3.3,4.9,3.5,4.9,8.1c0,2.2-0.9,3.6-2.7,3.9v1.2h-2.1v-1.2c-1.8-0.4-2.7-1.8-2.7-3.9v-1.1h2.4v1.3c0,1.1,0.5,1.6,1.3,1.6   c0.8,0,1.3-0.4,1.3-1.6c0-3.3-4.9-3.5-4.9-8.1C47.6,44.7,48.5,43.4,50.2,43z"/></g><circle cx="22.4" cy="50.8" r="2.3"/><circle cx="80.1" cy="50.8" r="2.3"/><text x="0" y="115" fill="#000000" font-size="5px" font-weight="bold" font-family="'Helvetica Neue', Helvetica, Arial-Unicode, Arial, Sans-serif">Created by  Thays Malcher</text><text x="0" y="120" fill="#000000" font-size="5px" font-weight="bold" font-family="'Helvetica Neue', Helvetica, Arial-Unicode, Arial, Sans-serif">from the Noun Project</text></svg>