<?xml version="1.0" standalone="no"?>
<!DOCTYPE svg PUBLIC "-//W3C//DTD SVG 20010904//EN"
 "http://www.w3.org/TR/2001/REC-SVG-20010904/DTD/svg10.dtd">
<svg version="1.0" xmlns="http://www.w3.org/2000/svg"
 width="1196.000000pt" height="983.000000pt" viewBox="0 0 1196.000000 983.000000"
 preserveAspectRatio="xMidYMid meet">
<metadata>
Created by potrace 1.16, written by Peter Selinger 2001-2019
</metadata>
<g transform="translate(0.000000,983.000000) scale(0.100000,-0.100000)"
fill="#000000" stroke="none">
<path d="M3513 8607 l-2113 -1220 0 -954 0 -953 90 0 90 0 2 902 3 903 2075
1196 c1645 948 2078 1202 2089 1224 17 34 1 99 -29 115 -58 31 7 67 -2207
-1213z"/>
<path d="M9657 9140 c-358 -57 -664 -320 -769 -662 l-23 -73 -3 -893 -3 -892
25 -25 c35 -35 94 -35 127 1 l24 26 5 886 c5 883 5 887 27 945 120 316 403
517 728 518 123 0 211 -19 319 -70 184 -86 315 -233 382 -426 25 -72 28 -94
28 -210 0 -116 -3 -139 -27 -210 -68 -195 -193 -335 -374 -417 -96 -43 -179
-58 -335 -58 -76 0 -138 -4 -138 -8 0 -9 836 -934 872 -964 20 -18 72 -24 103
-12 25 10 47 62 40 93 -4 18 -119 152 -320 372 l-313 343 71 21 c245 72 454
265 546 504 49 126 64 226 58 370 -6 148 -22 213 -82 338 -118 243 -332 415
-610 488 -73 19 -278 27 -358 15z"/>
<path d="M5664 7780 c-35 -8 -2366 -1341 -2402 -1374 -41 -37 -54 -74 -50
-140 4 -69 28 -112 75 -136 15 -8 278 -158 583 -332 l555 -318 337 0 c186 0
338 3 338 8 0 4 -306 182 -680 396 -374 214 -680 392 -680 395 0 5 1896 1098
1949 1124 11 6 194 -94 646 -354 1792 -1028 1631 -939 1695 -939 43 0 65 6 90
23 59 40 75 71 75 146 0 58 -4 73 -26 102 -21 26 -306 194 -1215 715 -732 420
-1202 684 -1224 687 -19 3 -49 2 -66 -3z"/>
<path d="M279 5290 c-130 -22 -209 -111 -209 -237 0 -116 58 -181 203 -229
155 -51 187 -77 187 -152 0 -54 -36 -95 -99 -112 -71 -19 -139 5 -188 65 l-29
35 -52 -38 c-28 -20 -52 -40 -52 -44 0 -18 63 -77 112 -104 50 -27 60 -29 163
-29 94 0 116 3 151 22 83 44 124 116 124 216 0 126 -59 188 -237 248 -118 39
-153 68 -153 127 0 117 158 161 255 71 l41 -38 47 37 c25 20 46 41 47 46 0 5
-18 26 -39 47 -60 56 -174 86 -272 69z"/>
<path d="M820 5220 l0 -60 130 0 130 0 0 -350 0 -350 60 0 60 0 0 350 0 350
130 0 130 0 0 60 0 60 -320 0 -320 0 0 -60z"/>
<path d="M3450 5220 l0 -60 130 0 130 0 0 -350 0 -350 60 0 60 0 0 350 0 350
130 0 130 0 0 60 0 60 -320 0 -320 0 0 -60z"/>
<path d="M1750 4866 l0 -406 60 0 60 0 0 181 0 180 47 -3 47 -3 105 -177 105
-178 79 0 79 0 -20 33 c-11 17 -61 99 -111 181 -90 146 -96 165 -55 166 25 0
95 62 115 101 17 35 20 56 17 119 -4 96 -33 146 -105 181 -44 22 -62 24 -235
27 l-188 3 0 -405z m304 284 c85 -19 124 -80 93 -145 -24 -50 -66 -67 -179
-73 l-98 -5 0 117 0 116 73 0 c39 0 90 -5 111 -10z"/>
<path d="M2797 5118 c-36 -84 -115 -267 -175 -405 l-110 -253 73 0 72 0 40 98
41 97 180 3 180 2 42 -100 42 -100 73 0 73 0 -174 403 -173 402 -59 3 -59 3
-66 -153z m189 -186 l60 -147 -63 -3 c-35 -2 -92 -2 -127 0 l-64 3 60 148 c34
81 63 147 67 147 3 0 33 -66 67 -148z"/>
<path d="M5965 5257 c-112 -38 -191 -105 -239 -207 -29 -61 -31 -72 -31 -185
0 -113 2 -124 31 -185 39 -83 101 -145 184 -184 61 -29 72 -31 185 -31 112 0
124 2 180 29 297 146 297 598 0 741 -52 25 -73 29 -165 32 -68 2 -119 -2 -145
-10z m262 -93 c194 -94 236 -382 79 -540 -62 -61 -127 -86 -222 -86 -115 1
-208 58 -264 164 -62 116 -52 264 26 370 85 119 247 157 381 92z"/>
<path d="M4860 4866 l0 -386 40 0 40 0 0 180 0 180 63 0 62 -1 105 -179 105
-180 52 0 c29 0 53 2 53 5 0 2 -47 82 -105 176 -57 95 -102 175 -100 179 3 4
17 10 32 13 36 7 91 45 117 80 18 24 21 43 21 115 0 102 -18 137 -88 175 -38
20 -59 22 -219 25 l-178 4 0 -386z m292 303 c95 -21 140 -98 102 -175 -29 -58
-76 -77 -206 -82 l-108 -5 0 137 0 136 80 0 c43 0 103 -5 132 -11z"/>
<path d="M6870 4968 c0 -156 5 -299 10 -318 17 -62 65 -126 116 -156 41 -24
62 -29 140 -32 123 -6 178 12 237 78 72 80 77 109 77 431 l0 279 -39 0 -39 0
-3 -272 -4 -273 -28 -58 c-38 -76 -91 -109 -176 -109 -105 0 -177 58 -200 162
-6 25 -11 159 -11 298 l0 252 -40 0 -40 0 0 -282z"/>
<path d="M7860 4865 l0 -385 220 0 220 0 0 35 0 35 -180 0 -180 0 0 350 0 350
-40 0 -40 0 0 -385z"/>
<path d="M8640 4865 l0 -385 250 0 250 0 0 35 0 35 -210 0 -210 0 0 150 0 150
190 0 190 0 0 35 0 35 -190 0 -190 0 0 130 0 130 200 0 200 0 0 35 0 35 -240
0 -240 0 0 -385z"/>
<path d="M9410 5215 l0 -35 130 0 130 0 0 -350 0 -350 40 0 40 0 0 350 0 350
130 0 130 0 0 35 0 35 -300 0 -300 0 0 -35z"/>
<path d="M10250 5215 l0 -35 130 0 130 0 0 -350 0 -350 40 0 40 0 0 350 0 350
130 0 130 0 0 35 0 35 -300 0 -300 0 0 -35z"/>
<path d="M11180 4865 l0 -385 250 0 250 0 0 35 0 35 -210 0 -210 0 0 150 0
150 190 0 190 0 0 35 0 35 -190 0 -190 0 0 130 0 130 200 0 200 0 0 35 0 35
-240 0 -240 0 0 -385z"/>
<path d="M1400 3393 l0 -938 1837 -1060 c1011 -583 1968 -1135 2127 -1227 159
-93 295 -168 301 -168 19 0 4246 2438 4261 2457 7 10 14 33 14 51 0 40 -46 92
-82 92 -29 0 142 97 -2201 -1253 l-1988 -1147 -2042 1179 -2042 1178 -3 886
-2 887 -90 0 -90 0 0 -937z"/>
<path d="M6465 4314 c11 -8 289 -171 617 -362 525 -305 596 -349 581 -360 -10
-7 -454 -263 -986 -568 -855 -491 -972 -555 -992 -546 -12 6 -521 298 -1131
648 l-1109 638 -67 1 c-52 0 -73 -5 -95 -21 -50 -37 -73 -81 -73 -142 0 -69
27 -119 83 -154 23 -14 562 -324 1197 -688 888 -510 1164 -664 1196 -668 27
-3 55 2 85 15 67 30 2351 1342 2378 1367 70 63 68 191 -5 257 -16 15 -251 155
-521 313 l-493 286 -342 0 c-306 -1 -341 -2 -323 -16z"/>
</g>
</svg>
