<?xml version="1.0" standalone="no"?>
<!DOCTYPE svg PUBLIC "-//W3C//DTD SVG 20010904//EN"
 "http://www.w3.org/TR/2001/REC-SVG-20010904/DTD/svg10.dtd">
<svg version="1.0" xmlns="http://www.w3.org/2000/svg"
 width="2000.000000pt" height="2000.000000pt" viewBox="0 0 2000.000000 2000.000000"
 preserveAspectRatio="xMidYMid meet">
<metadata>
Created by potrace 1.16, written by Peter Selinger 2001-2019
</metadata>
<g transform="translate(0.000000,2000.000000) scale(0.100000,-0.100000)"
fill="#000000" stroke="none">
<path d="M9660 16493 c-518 -35 -865 -89 -1305 -203 -2267 -587 -4068 -2393
-4650 -4665 -126 -491 -188 -934 -202 -1431 l-6 -230 28 -22 c50 -40 117 -19
129 40 3 13 7 122 10 243 11 433 68 842 181 1300 560 2270 2360 4070 4630
4630 458 113 870 170 1305 181 118 3 225 7 238 10 58 12 80 79 41 128 l-20 26
-167 -2 c-92 -1 -187 -3 -212 -5z"/>
<path d="M11960 14824 c-157 -33 -322 -157 -393 -292 -68 -130 -67 -114 -67
-741 l-1 -566 26 -22 c33 -29 84 -30 118 -3 l26 21 3 562 c3 559 3 562 26 619
103 254 405 354 630 208 141 -91 220 -259 193 -411 -34 -196 -178 -332 -378
-361 -94 -13 -117 -29 -117 -84 0 -32 19 -54 255 -290 139 -140 266 -262 281
-270 37 -19 61 -18 92 7 20 15 26 29 26 57 0 34 -13 50 -201 238 l-201 201 78
38 c151 72 270 223 310 391 22 95 14 235 -19 326 -100 275 -395 435 -687 372z"/>
<path d="M9947 14072 c-22 -24 -1597 -3598 -1597 -3623 0 -57 -44 -42 1570
-514 839 -244 1532 -448 1541 -452 13 -7 -112 -299 -748 -1743 -496 -1128
-763 -1746 -763 -1767 0 -20 8 -41 20 -53 25 -25 81 -26 108 -3 10 10 374 825
807 1811 596 1358 785 1799 781 1817 -3 14 -15 32 -25 42 -12 11 -611 191
-1555 467 -845 247 -1536 454 -1536 459 0 5 343 786 762 1735 419 950 763
1741 765 1757 7 46 -28 85 -76 85 -24 0 -44 -7 -54 -18z"/>
<path d="M16370 10060 c-27 -27 -28 -36 -34 -280 -11 -435 -68 -847 -181
-1305 -560 -2270 -2360 -4070 -4630 -4630 -458 -113 -870 -170 -1305 -181
-118 -3 -225 -7 -238 -10 -59 -12 -80 -79 -40 -129 l22 -28 230 6 c497 14 940
76 1431 202 2280 584 4086 2390 4670 4670 126 491 188 934 202 1431 l6 230
-28 22 c-34 27 -79 28 -105 2z"/>
<path d="M4040 8590 c0 -6 9 -43 20 -82 11 -40 20 -78 20 -84 0 -6 -27 -18
-59 -26 l-59 -15 -19 76 c-16 65 -22 76 -42 79 -20 3 -22 1 -15 -20 13 -43 34
-123 34 -134 0 -10 -70 -34 -98 -34 -5 0 -17 36 -27 80 -20 85 -24 94 -48 84
-13 -5 -12 -18 9 -97 14 -51 27 -99 30 -108 4 -15 24 -12 171 27 91 23 168 45
170 48 3 2 -7 52 -23 110 -22 87 -30 106 -46 106 -10 0 -18 -5 -18 -10z"/>
<path d="M3856 8092 c-6 -10 75 -262 84 -262 3 0 11 4 19 9 11 7 11 17 -4 60
-9 29 -15 54 -14 55 2 2 68 25 147 50 117 39 142 51 142 67 0 10 -6 19 -13 19
-7 0 -73 -20 -147 -45 -74 -25 -137 -45 -141 -45 -4 0 -15 23 -24 50 -15 46
-36 63 -49 42z"/>
<path d="M4222 7640 l-142 -59 -14 33 c-7 18 -17 42 -20 53 -5 15 -13 19 -26
16 -11 -3 -20 -7 -20 -10 0 -22 105 -253 115 -253 24 0 25 17 5 66 -12 26 -17
50 -13 54 7 6 193 85 260 111 15 6 20 14 16 28 -3 12 -8 21 -12 21 -3 0 -70
-27 -149 -60z"/>
<path d="M4475 7390 c-3 -5 13 -45 35 -89 l40 -81 -50 -25 c-27 -14 -53 -25
-58 -25 -4 0 -23 32 -42 70 -32 65 -51 83 -65 60 -3 -5 11 -41 30 -81 20 -39
35 -72 33 -74 -5 -4 -87 -45 -91 -45 -1 0 -21 36 -42 80 -21 44 -41 80 -45 80
-3 0 -12 -5 -20 -10 -12 -8 -7 -25 35 -110 27 -55 51 -100 52 -100 5 0 307
152 312 156 3 3 -17 49 -44 104 -46 93 -65 115 -80 90z"/>
<path d="M4665 7020 c-4 -6 10 -39 29 -74 20 -35 36 -66 36 -69 0 -2 -57 -37
-126 -77 -124 -72 -147 -91 -126 -112 7 -7 57 18 158 78 82 48 151 88 153 90
1 1 -19 41 -45 88 -47 81 -65 99 -79 76z"/>
<path d="M4832 6610 c-32 -13 -212 -140 -212 -150 0 -4 6 -12 13 -18 9 -8 39
8 114 59 56 38 114 72 130 75 34 7 79 -24 94 -64 18 -47 -6 -77 -123 -158 -89
-62 -107 -78 -97 -90 6 -8 15 -14 19 -14 16 0 199 131 220 157 11 14 23 37 27
51 17 68 -56 163 -125 161 -20 0 -47 -4 -60 -9z"/>
<path d="M5105 6208 c-112 -42 -160 -172 -100 -273 98 -169 359 -84 343 111
-8 92 -74 161 -164 169 -27 3 -62 -1 -79 -7z m119 -48 c80 -40 109 -124 64
-190 -68 -100 -191 -108 -247 -17 -50 81 -10 178 86 213 50 17 50 17 97 -6z"/>
<path d="M5521 5823 c-6 -20 -16 -60 -22 -89 -10 -46 -14 -52 -30 -44 -35 19
-88 12 -114 -16 -45 -49 -30 -107 49 -183 l46 -45 97 94 c54 52 111 107 128
122 28 26 29 29 12 45 -16 16 -20 14 -72 -37 -53 -52 -55 -53 -74 -36 -19 17
-19 19 5 108 20 70 23 93 13 104 -18 22 -27 17 -38 -23z"/>
<path d="M5978 5212 c-155 -81 -183 -101 -159 -117 16 -9 351 168 348 184 -1
8 -6 16 -12 17 -5 2 -85 -36 -177 -84z"/>
<path d="M6245 5014 c-149 -88 -180 -113 -157 -128 6 -4 309 164 340 189 5 4
-10 35 -17 35 -3 -1 -78 -43 -166 -96z"/>
<path d="M6843 4778 c-6 -7 -41 -65 -78 -128 -38 -63 -70 -117 -71 -119 -2 -2
-23 8 -48 23 -51 30 -62 32 -70 11 -4 -10 28 -34 112 -85 106 -64 118 -68 130
-53 10 15 6 21 -38 46 l-50 29 27 46 c15 26 51 87 81 136 41 68 50 91 40 97
-18 12 -24 11 -35 -3z"/>
<path d="M7082 4467 c-7 -110 -8 -195 -3 -200 5 -5 16 -7 25 -5 17 3 295 229
295 240 1 4 -8 10 -20 13 -15 5 -31 -2 -57 -23 l-37 -29 -79 39 -79 40 6 47
c5 43 3 49 -17 59 l-23 10 -11 -191z"/>
<path d="M7540 4428 c0 -7 6 -50 14 -95 l13 -83 -37 0 c-65 0 -106 -69 -76
-129 17 -32 41 -47 124 -80 l50 -20 66 161 c44 106 64 164 57 171 -18 18 -38
-1 -61 -62 -26 -70 -32 -76 -59 -62 -15 8 -22 30 -31 98 -11 82 -25 113 -52
113 -4 0 -8 -6 -8 -12z"/>
<path d="M7997 4095 c-27 -80 -52 -145 -56 -145 -5 0 -28 7 -51 15 -55 19 -60
19 -60 -4 0 -16 23 -27 126 -61 103 -35 128 -40 135 -29 14 22 12 24 -46 43
-30 9 -55 18 -55 19 0 2 22 69 49 149 27 81 47 149 43 152 -3 3 -13 6 -21 6
-12 0 -29 -38 -64 -145z"/>
<path d="M8373 4120 c-26 -11 -53 -59 -53 -94 0 -30 38 -77 86 -106 48 -30 60
-55 40 -86 -29 -44 -88 -40 -126 7 -13 16 -18 17 -33 7 -16 -12 -16 -15 -2
-35 8 -12 35 -29 60 -39 60 -22 117 -8 140 36 31 59 18 93 -59 149 -62 46 -72
70 -44 106 28 35 71 33 110 -5 21 -21 36 -29 49 -25 25 8 24 17 -6 49 -40 43
-107 58 -162 36z"/>
</g>
</svg>
