<svg id="Layer_1" data-name="Layer 1" xmlns="http://www.w3.org/2000/svg" viewBox="0 0 351 370.38"><defs><style>.cls-1,.cls-2,.cls-3,.cls-4{fill:none;}.cls-1,.cls-2,.cls-3,.cls-4,.cls-5{stroke:#000;}.cls-1,.cls-3,.cls-4{stroke-linecap:round;}.cls-1,.cls-3{stroke-linejoin:round;}.cls-1,.cls-2,.cls-4{stroke-width:4px;}.cls-2,.cls-4,.cls-5{stroke-miterlimit:10;}.cls-3{stroke-width:5px;}.cls-5,.cls-6{font-size:13.25px;font-family:AvenirNextLTPro-Regular, Avenir Next LT Pro;}.cls-5{stroke-width:0.5px;}</style></defs><title>logo_final_black</title><polyline class="cls-1" points="132 140.05 168.22 156.01 177.59 123.99"/><line class="cls-1" x1="213.82" y1="139.79" x2="177.65" y2="123.89"/><path class="cls-2" d="M283.25,120" transform="translate(-64.5 -65)"/><path class="cls-3" d="M174.5,331V209.33c0-33.86,28.32-61.31,62.18-61.31s61.87,27.45,61.87,61.31a61.32,61.32,0,0,1-61.32,61.31l60.93,60.19" transform="translate(-64.5 -65)"/><path class="cls-4" d="M240,414A173.5,173.5,0,1,0,66.5,240.5" transform="translate(-64.5 -65)"/><text class="cls-5" transform="matrix(0.24, 0.97, -0.97, 0.24, 6.32, 214.16)">S</text><text class="cls-5" transform="translate(9.27 225.35) rotate(72.12)">T</text><text class="cls-5" transform="translate(13.06 236.65) rotate(68.13)">R</text><text class="cls-5" transform="translate(17.79 248.06) rotate(63.81)">A</text><text class="cls-5" transform="matrix(0.5, 0.86, -0.86, 0.5, 23.6, 259.52)">T</text><text class="cls-5" transform="translate(29.54 269.39) rotate(56.69)"> </text><text class="cls-6" transform="translate(33.76 275.68) rotate(53.91)">/</text><text class="cls-6" transform="translate(39.25 283.01) rotate(50.87)">/</text><text class="cls-6" transform="matrix(0.67, 0.74, -0.74, 0.67, 45.12, 290.03)"> </text><text class="cls-6" transform="translate(50.24 295.66) rotate(44.83)">R</text><text class="cls-6" transform="translate(59.09 304.3) rotate(40.2)">O</text><text class="cls-6" transform="matrix(0.82, 0.58, -0.58, 0.82, 71.24, 314.26)">U</text><text class="cls-6" transform="translate(82.62 322.08) rotate(31.25)">L</text><text class="cls-6" transform="matrix(0.89, 0.46, -0.46, 0.89, 92.18, 327.74)">E</text><text class="cls-6" transform="translate(103.07 333.21) rotate(23.46)">T</text><text class="cls-6" transform="translate(114.06 337.82) rotate(19.54)">T</text><text class="cls-6" transform="matrix(0.96, 0.27, -0.27, 0.96, 125.35, 341.67)">E</text></svg>